<?xml version="1.0" encoding="UTF-8"?>
<svg width="66px" height="72px" viewBox="0 0 66 72" version="1.1" xmlns="http://www.w3.org/2000/svg" xmlns:xlink="http://www.w3.org/1999/xlink">
    <!-- Generator: sketchtool 52.2 (67145) - http://www.bohemiancoding.com/sketch -->
    <title>4BBEFD27-19A2-4EC5-AAAF-BD978A99AEA0</title>
    <desc>Created with sketchtool.</desc>
    <defs>
        <linearGradient x1="156.37862%" y1="-35.9375%" x2="0%" y2="115.334302%" id="linearGradient-1">
            <stop stop-color="#69B8F2" offset="0%"></stop>
            <stop stop-color="#017EE5" offset="100%"></stop>
        </linearGradient>
    </defs>
    <g id="Web-App---Desktop" stroke="none" stroke-width="1" fill="none" fill-rule="evenodd">
        <g id="Buy-Tokens---Step-2" transform="translate(-511.000000, -461.000000)" fill="url(#linearGradient-1)">
            <g id="Selection" transform="translate(413.000000, 305.000000)">
                <g id="Manual---Selected" transform="translate(0.000000, 60.000000)">
                    <path d="M130.571429,96 L98,113.142857 L98,120 L163.142857,120 L163.142857,113.142857 L130.571429,96 Z M146,126.857143 L146,150.857143 L156.285714,150.857143 L156.285714,126.857143 L146,126.857143 Z M98,168 L163.142857,168 L163.142857,157.714286 L98,157.714286 L98,168 Z M125.428571,126.857143 L125.428571,150.857143 L135.714286,150.857143 L135.714286,126.857143 L125.428571,126.857143 Z M104.857143,126.857143 L104.857143,150.857143 L115.142857,150.857143 L115.142857,126.857143 L104.857143,126.857143 Z" id="Shape"></path>
                </g>
            </g>
        </g>
    </g>
</svg>