<?xml version="1.0" encoding="UTF-8" standalone="no"?>
<svg
   xmlns:dc="http://purl.org/dc/elements/1.1/"
   xmlns:cc="http://creativecommons.org/ns#"
   xmlns:rdf="http://www.w3.org/1999/02/22-rdf-syntax-ns#"
   xmlns:svg="http://www.w3.org/2000/svg"
   xmlns="http://www.w3.org/2000/svg"
   xmlns:xlink="http://www.w3.org/1999/xlink"
   xmlns:sodipodi="http://sodipodi.sourceforge.net/DTD/sodipodi-0.dtd"
   xmlns:inkscape="http://www.inkscape.org/namespaces/inkscape"
   sodipodi:docname="euro-icon2.svg"
   inkscape:version="1.0 (4035a4f, 2020-05-01)"
   id="svg2919"
   version="1.1"
   viewBox="0 0 12.520455 12.520455"
   height="12.520455mm"
   width="12.520455mm">
  <defs
     id="defs2913">
    <linearGradient
       gradientTransform="matrix(-0.26200842,0.03682288,-0.03682288,-0.26200842,95.579589,134.16304)"
       x1="257.25031"
       y1="108.83739"
       x2="214.34811"
       y2="151.99301"
       id="linearGradient-1"
       gradientUnits="userSpaceOnUse">
      <stop
         stop-color="#69B4EF"
         offset="0%"
         id="stop3574" />
      <stop
         stop-color="#623479"
         offset="100%"
         id="stop3576" />
    </linearGradient>
    <path
       d="m 226.42,141.16 c -0.94934,0 -1.752,-0.14933 -2.408,-0.448 -0.656,-0.29867 -1.14667,-0.67466 -1.472,-1.128 -0.32534,-0.45334 -0.49867,-0.92 -0.52,-1.4 0,-0.096 0.032,-0.176 0.096,-0.24 0.064,-0.064 0.144,-0.096 0.24,-0.096 h 1.472 c 0.23467,0 0.39467,0.10667 0.48,0.32 0.23467,0.75734 0.93866,1.136 2.112,1.136 0.65067,0 1.16,-0.14933 1.528,-0.448 0.368,-0.29867 0.552,-0.72533 0.552,-1.28 0,-0.55467 -0.168,-0.95733 -0.504,-1.208 -0.336,-0.25067 -0.82933,-0.376 -1.48,-0.376 h -1.648 c -0.10667,0 -0.19733,-0.0373 -0.272,-0.112 -0.0747,-0.0747 -0.112,-0.16533 -0.112,-0.272 v -0.688 c 0,-0.20267 0.0693,-0.36267 0.208,-0.48 l 2.848,-2.784 h -4.56 c -0.11733,0 -0.21333,-0.0373 -0.288,-0.112 -0.0747,-0.0747 -0.112,-0.16533 -0.112,-0.272 V 130.2 c 0,-0.11733 0.0373,-0.21333 0.112,-0.288 0.0747,-0.0747 0.17067,-0.112 0.288,-0.112 h 6.88 c 0.11733,0 0.21333,0.0373 0.288,0.112 0.0747,0.0747 0.112,0.17067 0.112,0.288 v 0.976 c 0,0.18133 -0.0693,0.33067 -0.208,0.448 l -2.752,2.832 0.192,0.016 c 1.024,0.0853 1.83733,0.39466 2.44,0.928 0.60267,0.53334 0.904,1.29599 0.904,2.288 0,0.704 -0.18933,1.31733 -0.568,1.84 -0.37867,0.52267 -0.90133,0.92533 -1.568,1.208 -0.66667,0.28267 -1.42666,0.424 -2.28,0.424 z m 10.224,0 c -0.896,0 -1.68266,-0.17067 -2.36,-0.512 -0.67734,-0.34134 -1.2,-0.81066 -1.568,-1.408 -0.368,-0.59734 -0.552,-1.26933 -0.552,-2.016 0,-0.93867 0.416,-1.97333 1.248,-3.104 l 2.912,-4 c 0.0853,-0.10667 0.16533,-0.18667 0.24,-0.24 0.0747,-0.0533 0.18133,-0.08 0.32,-0.08 h 1.52 c 0.096,0 0.17333,0.0347 0.232,0.104 0.0587,0.0693 0.088,0.152 0.088,0.248 0,0.0747 -0.0213,0.144 -0.064,0.208 l -2.24,3.088 c 0.17067,-0.0427 0.39466,-0.064 0.672,-0.064 0.71467,0.0107 1.37333,0.184 1.976,0.52 0.60267,0.336 1.08266,0.792 1.44,1.368 0.35733,0.576 0.536,1.216 0.536,1.92 0,0.72534 -0.17867,1.38933 -0.536,1.992 -0.35734,0.60267 -0.86933,1.08266 -1.536,1.44 -0.66667,0.35733 -1.44266,0.536 -2.328,0.536 z m -0.032,-1.856 c 0.59734,0 1.104,-0.184 1.52,-0.552 0.416,-0.368 0.624,-0.87733 0.624,-1.528 0,-0.64 -0.20533,-1.144 -0.616,-1.512 -0.41067,-0.368 -0.92,-0.552 -1.528,-0.552 -0.59734,0 -1.10133,0.184 -1.512,0.552 -0.41067,0.368 -0.616,0.872 -0.616,1.512 0,0.65067 0.20533,1.16 0.616,1.528 0.41067,0.368 0.91466,0.552 1.512,0.552 z"
       id="path-2" />
    <linearGradient
       gradientTransform="matrix(2.82123,0,0,2.3399795,-99.643734,-248.76566)"
       gradientUnits="userSpaceOnUse"
       y2="107.20333"
       x2="37.29702"
       y1="105.31759"
       x1="38.896038"
       id="linearGradient3664"
       xlink:href="#linearGradient-1"
       inkscape:collect="always" />
    <linearGradient
       x1="214.93829"
       y1="107.42556"
       x2="0"
       y2="388.32568"
       id="linearGradient-1-5"
       gradientTransform="scale(0.83755151,1.1939564)"
       gradientUnits="userSpaceOnUse">
      <stop
         stop-color="#63B4F5"
         offset="0%"
         id="stop3670" />
      <stop
         stop-color="#017EE5"
         offset="100%"
         id="stop3672" />
    </linearGradient>
    <filter
       height="1.0722101"
       y="-0.03610507"
       width="1.0431247"
       x="-0.021562351"
       id="filter4828"
       style="color-interpolation-filters:sRGB"
       inkscape:collect="always">
      <feGaussianBlur
         id="feGaussianBlur4830"
         stdDeviation="0.018840257"
         inkscape:collect="always" />
    </filter>
  </defs>
  <sodipodi:namedview
     inkscape:window-maximized="0"
     inkscape:window-y="83"
     inkscape:window-x="264"
     inkscape:window-height="1915"
     inkscape:window-width="1768"
     showgrid="false"
     inkscape:document-rotation="0"
     inkscape:current-layer="layer1"
     inkscape:document-units="mm"
     inkscape:cy="106.01348"
     inkscape:cx="0.21924899"
     inkscape:zoom="6.834624"
     inkscape:pageshadow="2"
     inkscape:pageopacity="0.0"
     borderopacity="1.0"
     bordercolor="#666666"
     pagecolor="#ffffff"
     id="base" />
  <metadata
     id="metadata2916">
    <rdf:RDF>
      <cc:Work
         rdf:about="">
        <dc:format>image/svg+xml</dc:format>
        <dc:type
           rdf:resource="http://purl.org/dc/dcmitype/StillImage" />
        <dc:title></dc:title>
      </cc:Work>
    </rdf:RDF>
  </metadata>
  <g
     transform="translate(1.4602277,1.4602264)"
     id="layer1"
     inkscape:groupmode="layer"
     inkscape:label="Layer 1">
    <rect
       transform="rotate(45)"
       ry="1.277505"
       y="-4.7999992"
       x="1.9882256"
       height="9.6000004"
       width="9.6000004"
       id="rect3656"
       style="opacity:0.65;fill:url(#linearGradient3664);fill-opacity:1;stroke-width:2.37833;stroke-miterlimit:4;stroke-dasharray:none" />
    <path
       d="m 7.3980124,5.7975166 c 0.049736,-0.00139 0.092053,0.015699 0.1265563,0.049779 0.035009,0.033651 0.049053,0.0769 0.042217,0.1289604 C 7.5469041,6.318027 7.4354669,6.6347649 7.2321289,6.9265128 7.0287855,7.2182584 6.739988,7.4544428 6.3656965,7.6350818 5.9914046,7.8157862 5.5557927,7.912717 5.058874,7.9260223 4.3521298,7.9449609 3.797576,7.7847419 3.3951835,7.4456916 2.9927884,7.1065637 2.76129,6.6110449 2.700708,5.9590786 l -0.5383372,0.014426 c -0.055171,0.00138 -0.1016398,-0.01745 -0.138994,-0.057506 -0.037598,-0.039396 -0.055727,-0.087971 -0.054201,-0.1461289 l 0.012863,-0.5035091 c 0.00159,-0.063546 0.022215,-0.1146789 0.061968,-0.1534412 0.039593,-0.038527 0.087047,-0.058886 0.1422219,-0.060307 l 0.513492,-0.013764 0.00843,-0.3299146 -0.5134871,0.013755 c -0.055171,0.00138 -0.1016398,-0.01745 -0.1389927,-0.057505 -0.037598,-0.039396 -0.055726,-0.087972 -0.054193,-0.146147 L 2.0143329,4.015536 c 0.00164,-0.063637 0.022228,-0.1146841 0.061955,-0.1534138 0.039593,-0.038527 0.087087,-0.058977 0.142229,-0.060326 l 0.538333,-0.014416 C 2.8454676,3.1256443 3.0999855,2.6127653 3.5203519,2.2487095 3.9407192,1.8846322 4.5070265,1.6930576 5.2192747,1.6740081 5.7162073,1.6606762 6.147451,1.7345013 6.5130161,1.8952801 6.8782974,2.0568192 7.1556875,2.2771966 7.3443995,2.5583934 7.5330888,2.8396239 7.6285892,3.1508328 7.6309128,3.4919927 l -4.79e-4,0.018286 C 7.6292738,3.5565027 7.6103398,3.5961267 7.5736268,3.629019 7.5368978,3.661925 7.4964618,3.67884 7.4523106,3.679981 L 6.6489586,3.701476 C 6.5827183,3.7031818 6.5307068,3.6881251 6.4928383,3.6579104 6.4550348,3.6270679 6.4260292,3.5715724 6.4060646,3.4909959 6.3307762,3.1980356 6.1926979,2.9877543 5.991815,2.8600908 5.7909433,2.7324541 5.5248326,2.6730843 5.193555,2.681948 4.5089076,2.7002709 4.1025011,3.0581726 3.9743329,3.7556522 l 1.3665252,-0.036576 c 0.060764,-0.00163 0.1085206,0.016025 0.1433877,0.052894 0.034915,0.036565 0.051568,0.086887 0.049943,0.1504949 l -0.012863,0.5035085 c -0.00145,0.057917 -0.022075,0.1075053 -0.061735,0.1492318 -0.039689,0.04155 -0.087131,0.063008 -0.14234,0.064502 l -1.3996654,0.037485 -0.00843,0.329915 1.3996593,-0.037477 c 0.060755,-0.00163 0.1085191,0.016024 0.1433858,0.052893 0.034915,0.036565 0.051568,0.086887 0.049939,0.1505039 l -0.012859,0.5034999 c -0.00145,0.057917 -0.020669,0.1074204 -0.057619,0.1490834 -0.036903,0.041368 -0.085776,0.063064 -0.1464924,0.064645 l -1.3665243,0.036576 c 0.092973,0.6799943 0.4817861,1.01082 1.1664336,0.9924971 0.3312817,-0.00887 0.6007743,-0.082637 0.8084566,-0.2211944 0.2076937,-0.1385408 0.3567176,-0.3565666 0.4470812,-0.6539638 0.024111,-0.081543 0.055935,-0.1389085 0.095436,-0.1717951 0.03942,-0.032803 0.092334,-0.050183 0.1585989,-0.051976 z"
       id="€"
       fill="#ffffff"
       style="opacity:0.9;fill-rule:evenodd;stroke:none;stroke-width:0.470918" />
  </g>
</svg>
