<?xml version="1.0" encoding="UTF-8"?>
<svg width="16px" height="20px" viewBox="0 0 16 20" version="1.1" xmlns="http://www.w3.org/2000/svg" xmlns:xlink="http://www.w3.org/1999/xlink">
    <!-- Generator: sketchtool 52.3 (67297) - http://www.bohemiancoding.com/sketch -->
    <title>1A9B400B-D882-4698-853C-570580A17B0C</title>
    <desc>Created with sketchtool.</desc>
    <defs>
        <linearGradient x1="63.8375539%" y1="31.9058287%" x2="0%" y2="115.334302%" id="linearGradient-1">
            <stop stop-color="#63B4F5" offset="0%"></stop>
            <stop stop-color="#017EE5" offset="100%"></stop>
        </linearGradient>
    </defs>
    <g id="Web-App---Desktop" stroke="none" stroke-width="1" fill="none" fill-rule="evenodd">
        <g id="Home---Tier-0-User" transform="translate(-1170.000000, -59.000000)" fill="url(#linearGradient-1)">
            <g id="Top" transform="translate(0.000000, -2.000000)">
                <g id="Navigation" transform="translate(115.000000, 48.000000)">
                    <g id="Right-Side" transform="translate(1055.000000, 2.000000)">
                        <g id="Notifications" transform="translate(0.000000, 11.000000)">
                            <path d="M8,20 C9.1045695,20 10,19.0816097 10,17.9487179 L6,17.9487179 C6,19.0816097 6.8954305,20 8,20 Z M14,13.8461538 L14,8.71794872 C14,5.56923077 12.36,2.93333333 9.5,2.23589744 L9.5,1.53846154 C9.5,0.688792693 8.82842712,0 8,0 C7.17157288,0 6.5,0.688792693 6.5,1.53846154 L6.5,2.23589744 C3.63,2.93333333 2,5.55897436 2,8.71794872 L2,13.8461538 L0,15.8974359 L0,16.9230769 L16,16.9230769 L16,15.8974359 L14,13.8461538 Z" id="Icon"></path>
                        </g>
                    </g>
                </g>
            </g>
        </g>
    </g>
</svg>