<?xml version="1.0" encoding="UTF-8" standalone="no"?>
<svg
   xmlns:dc="http://purl.org/dc/elements/1.1/"
   xmlns:cc="http://creativecommons.org/ns#"
   xmlns:rdf="http://www.w3.org/1999/02/22-rdf-syntax-ns#"
   xmlns:svg="http://www.w3.org/2000/svg"
   xmlns="http://www.w3.org/2000/svg"
   xmlns:sodipodi="http://sodipodi.sourceforge.net/DTD/sodipodi-0.dtd"
   xmlns:inkscape="http://www.inkscape.org/namespaces/inkscape"
   width="293.775"
   height="293.667"
   viewBox="0 0 293.775 293.667"
   version="1.1"
   id="svg5"
   sodipodi:docname="etherscan.svg"
   inkscape:version="0.92.3 (2405546, 2018-03-11)">
  <metadata
     id="metadata11">
    <rdf:RDF>
      <cc:Work
         rdf:about="">
        <dc:format>image/svg+xml</dc:format>
        <dc:type
           rdf:resource="http://purl.org/dc/dcmitype/StillImage" />
      </cc:Work>
    </rdf:RDF>
  </metadata>
  <defs
     id="defs9" />
  <sodipodi:namedview
     pagecolor="#ffffff"
     bordercolor="#666666"
     borderopacity="1"
     objecttolerance="10"
     gridtolerance="10"
     guidetolerance="10"
     inkscape:pageopacity="0"
     inkscape:pageshadow="2"
     inkscape:window-width="2505"
     inkscape:window-height="1410"
     id="namedview7"
     showgrid="false"
     inkscape:zoom="0.80363135"
     inkscape:cx="-199.04227"
     inkscape:cy="146.8335"
     inkscape:window-x="55"
     inkscape:window-y="0"
     inkscape:window-maximized="1"
     inkscape:current-layer="etherscan-logo-light-circle" />
  <g
     id="etherscan-logo-light-circle"
     transform="translate(-219.378 -213.333)">
    <path
       id="Path_1"
       data-name="Path 1"
       d="M280.433,353.152A12.45,12.45,0,0,1,292.941,340.7l20.737.068a12.467,12.467,0,0,1,12.467,12.467v78.414c2.336-.692,5.332-1.43,8.614-2.2a10.389,10.389,0,0,0,8.009-10.11V322.073a12.469,12.469,0,0,1,12.467-12.47h20.779a12.47,12.47,0,0,1,12.467,12.47v90.276s5.2-2.106,10.269-4.245a10.408,10.408,0,0,0,6.353-9.577V290.9a12.466,12.466,0,0,1,12.465-12.467h20.779A12.468,12.468,0,0,1,450.815,290.9v88.625c18.014-13.055,36.271-28.758,50.759-47.639a20.926,20.926,0,0,0,3.185-19.537,146.6,146.6,0,0,0-136.644-99.006c-81.439-1.094-148.744,65.385-148.736,146.834a146.371,146.371,0,0,0,19.5,73.45,18.56,18.56,0,0,0,17.707,9.173c3.931-.346,8.825-.835,14.643-1.518a10.383,10.383,0,0,0,9.209-10.306V353.152"
       transform="translate(0 0)"
       fill="#fff"
       style="fill:#dfdfdf;fill-opacity:1" />
    <path
       id="Path_2"
       data-name="Path 2"
       d="M244.417,398.641A146.808,146.808,0,0,0,477.589,279.9c0-3.381-.157-6.724-.383-10.049-53.642,80-152.686,117.405-232.79,128.793"
       transform="translate(35.564 80.269)"
       fill="#bfcfda" />
  </g>
</svg>
