<?xml version="1.0" encoding="UTF-8"?>
<svg width="58px" height="31px" viewBox="0 0 58 31" version="1.1" xmlns="http://www.w3.org/2000/svg" xmlns:xlink="http://www.w3.org/1999/xlink">
    <!-- Generator: Sketch 54.1 (76490) - https://sketchapp.com -->
    <title>Selfie Icon</title>
    <desc>Created with Sketch.</desc>
    <defs>
        <linearGradient x1="50%" y1="0%" x2="57.5115816%" y2="89.9821075%" id="linearGradient-1">
            <stop stop-color="#FCF5C9" offset="0%"></stop>
            <stop stop-color="#CEBB61" offset="100%"></stop>
        </linearGradient>
    </defs>
    <g id="Web-App---Desktop" stroke="none" stroke-width="1" fill="none" fill-rule="evenodd">
        <g id="Verification---Id-verification" transform="translate(-241.000000, -530.000000)">
            <g id="Modal" transform="translate(222.000000, 202.000000)">
                <g id="Selfie-Icon" transform="translate(19.000000, 328.000000)">
                    <polyline id="Line-3" stroke="#1F8EEA" stroke-width="3.36" stroke-linecap="round" stroke-linejoin="round" transform="translate(31.629150, 22.959837) rotate(16.000000) translate(-31.629150, -22.959837) " points="29.158124 27.5038455 30.7368721 26.2875439 32.2538179 22.0638588 34.100177 16.9229768 30.6948178 28.9966966"></polyline>
                    <path d="M15.16,0.52 C19.1364502,0.52 22.36,4.00143379 22.36,8.296 C22.36,12.5905662 19.1364502,16.072 15.16,16.072 C11.1835498,16.072 7.96,12.5905662 7.96,8.296 C7.96,4.00143379 11.1835498,0.52 15.16,0.52 L15.16,0.52 Z M14.76,19.528 C22.495,19.528 28.76,22.87888 28.76,27.016 L28.76,30.76 L0.76,30.76 L0.76,27.016 C0.76,22.87888 7.025,19.528 14.76,19.528 Z" id="contact-icon" fill="#1F8EEA" fill-rule="nonzero"></path>
                    <g id="ID-Front" transform="translate(28.760000, 1.080000)">
                        <path d="M11.7538909,3.91689262 L21.2840727,3.91689262" id="Line" stroke="#1F8EEA" stroke-width="0.9408" stroke-linecap="round" stroke-linejoin="bevel"></path>
                        <path d="M11.7538909,6.76406853 L21.2840727,6.76406853" id="Line" stroke="#1F8EEA" stroke-width="0.9408" stroke-linecap="round" stroke-linejoin="bevel"></path>
                        <path d="M11.7538909,9.52227019 L18.1073455,9.52227019" id="Line" stroke="#1F8EEA" stroke-width="0.9408" stroke-linecap="round" stroke-linejoin="bevel"></path>
                        <path d="M5.40043636,3.91486687 C6.18994248,3.91486687 6.82996364,4.63189916 6.82996364,5.51640332 C6.82996364,6.40090747 6.18994248,7.11793976 5.40043636,7.11793976 C4.61093025,7.11793976 3.97090909,6.40090747 3.97090909,5.51640332 C3.97090909,4.63189916 4.61093025,3.91486687 5.40043636,3.91486687 L5.40043636,3.91486687 Z M5.32101818,7.82973374 C6.85676727,7.82973374 8.10065455,8.51987732 8.10065455,9.37195402 L8.10065455,10.1430642 L2.54138182,10.1430642 L2.54138182,9.37195402 C2.54138182,8.51987732 3.78526909,7.82973374 5.32101818,7.82973374 Z" id="contact-icon" fill="#1F8EEA" fill-rule="nonzero"></path>
                        <rect id="Rectangle" stroke="#0D84E7" stroke-width="0.672" stroke-linecap="round" stroke-linejoin="round" x="-0.336" y="-0.336" width="25.2916364" height="14.729931" rx="1.0752"></rect>
                    </g>
                    <g id="Group" transform="translate(43.320000, 13.400000)">
                        <rect id="Rectangle" stroke-opacity="0.3" stroke="#979797" stroke-width="0.5" fill="url(#linearGradient-1)" x="-0.25" y="-0.125555556" width="14.0010909" height="14.2562353"></rect>
                        <text id="element36-11.02.19" font-family="Rubik-Regular, Rubik" font-size="2.016" font-weight="normal" fill="#001C33">
                            <tspan x="1.71457745" y="5.82849673">element36</tspan>
                            <tspan x="3.13888145" y="8.82849673">11.02.19</tspan>
                        </text>
                    </g>
                </g>
            </g>
        </g>
    </g>
</svg>