<svg width="116" height="111" viewBox="0 0 116 111" fill="none" xmlns="http://www.w3.org/2000/svg">
<path fill-rule="evenodd" clip-rule="evenodd" d="M5.14286 30.8571L30.8571 5.14286C33.6975 2.30254 38.3025 2.30254 41.1428 5.14286L66.8571 30.8571C69.6975 33.6975 69.6975 38.3025 66.8571 41.1429L41.1428 66.8571C38.3025 69.6975 33.6975 69.6975 30.8571 66.8571L5.14286 41.1429C2.30253 38.3025 2.30253 33.6975 5.14286 30.8571Z" fill="#017EE5"/>
<g opacity="0.08">
<path opacity="0.08" d="M27.6723 47.2006C25.9462 47.2006 24.4867 46.9291 23.2939 46.386C22.1011 45.8429 21.2089 45.1593 20.6174 44.335C20.0258 43.5107 19.7107 42.6622 19.6719 41.7894C19.6719 41.6148 19.7301 41.4694 19.8465 41.353C19.9628 41.2366 20.1083 41.1785 20.2829 41.1785H22.9594C23.386 41.1785 23.677 41.3724 23.8321 41.7603C24.2588 43.1373 25.5389 43.8259 27.6723 43.8259C28.8554 43.8259 29.7815 43.5543 30.4506 43.0113C31.1198 42.4682 31.4543 41.6924 31.4543 40.6839C31.4543 39.6753 31.1489 38.9432 30.5379 38.4874C29.927 38.0316 29.03 37.8037 27.8469 37.8037H24.8503C24.6564 37.8037 24.4915 37.7359 24.3558 37.6001C24.22 37.4643 24.1521 37.2995 24.1521 37.1055V35.8545C24.1521 35.486 24.2782 35.1951 24.5303 34.9818L29.7088 29.9197H21.4174C21.2041 29.9197 21.0296 29.8518 20.8938 29.7161C20.758 29.5803 20.6901 29.4154 20.6901 29.2215V27.2723C20.6901 27.0589 20.758 26.8844 20.8938 26.7486C21.0296 26.6129 21.2041 26.545 21.4174 26.545H33.9272C34.1405 26.545 34.3151 26.6129 34.4508 26.7486C34.5866 26.8844 34.6545 27.0589 34.6545 27.2723V29.0469C34.6545 29.3766 34.5284 29.6482 34.2763 29.8615L29.2724 35.0109L29.6215 35.04C31.4834 35.1951 32.9623 35.7576 34.0581 36.7273C35.1539 37.6971 35.7018 39.0838 35.7018 40.8875C35.7018 42.1676 35.3576 43.2828 34.669 44.2332C33.9805 45.1835 33.0302 45.9156 31.818 46.4296C30.6058 46.9436 29.2239 47.2006 27.6723 47.2006ZM46.2623 47.2006C44.6332 47.2006 43.2028 46.8903 41.9712 46.2696C40.7396 45.649 39.7893 44.7956 39.1202 43.7095C38.451 42.6234 38.1165 41.4015 38.1165 40.0438C38.1165 38.3371 38.8729 36.4558 40.3857 34.3999L45.6805 27.1268C45.8357 26.9329 45.9811 26.7874 46.1169 26.6904C46.2526 26.5935 46.4466 26.545 46.6987 26.545H49.4625C49.6371 26.545 49.7777 26.608 49.8844 26.7341C49.991 26.8602 50.0444 27.0104 50.0444 27.185C50.0444 27.3208 50.0056 27.4468 49.928 27.5632L45.8551 33.178C46.1654 33.1005 46.5727 33.0617 47.0769 33.0617C48.3764 33.0811 49.574 33.3962 50.6698 34.0072C51.7657 34.6181 52.6384 35.4472 53.2882 36.4946C53.9379 37.5419 54.2628 38.7056 54.2628 39.9857C54.2628 41.3045 53.9379 42.5119 53.2882 43.6077C52.6384 44.7035 51.7075 45.5762 50.4953 46.226C49.2831 46.8757 47.8721 47.2006 46.2623 47.2006ZM46.2042 43.8259C47.2903 43.8259 48.2115 43.4913 48.968 42.8222C49.7244 42.153 50.1025 41.2269 50.1025 40.0438C50.1025 38.8801 49.7292 37.9638 48.9825 37.2946C48.2358 36.6255 47.3097 36.2909 46.2042 36.2909C45.118 36.2909 44.2017 36.6255 43.4549 37.2946C42.7082 37.9638 42.3349 38.8801 42.3349 40.0438C42.3349 41.2269 42.7082 42.153 43.4549 42.8222C44.2017 43.4913 45.118 43.8259 46.2042 43.8259Z" fill="#017EE5"/>
<path opacity="0.08" d="M27.6723 47.2006C25.9462 47.2006 24.4867 46.9291 23.2939 46.386C22.1011 45.8429 21.2089 45.1593 20.6174 44.335C20.0258 43.5107 19.7107 42.6622 19.6719 41.7894C19.6719 41.6148 19.7301 41.4694 19.8465 41.353C19.9628 41.2366 20.1083 41.1785 20.2829 41.1785H22.9594C23.386 41.1785 23.677 41.3724 23.8321 41.7603C24.2588 43.1373 25.5389 43.8259 27.6723 43.8259C28.8554 43.8259 29.7815 43.5543 30.4506 43.0113C31.1198 42.4682 31.4543 41.6924 31.4543 40.6839C31.4543 39.6753 31.1489 38.9432 30.5379 38.4874C29.927 38.0316 29.03 37.8037 27.8469 37.8037H24.8503C24.6564 37.8037 24.4915 37.7359 24.3558 37.6001C24.22 37.4643 24.1521 37.2995 24.1521 37.1055V35.8545C24.1521 35.486 24.2782 35.1951 24.5303 34.9818L29.7088 29.9197H21.4174C21.2041 29.9197 21.0296 29.8518 20.8938 29.7161C20.758 29.5803 20.6901 29.4154 20.6901 29.2215V27.2723C20.6901 27.0589 20.758 26.8844 20.8938 26.7486C21.0296 26.6129 21.2041 26.545 21.4174 26.545H33.9272C34.1405 26.545 34.3151 26.6129 34.4508 26.7486C34.5866 26.8844 34.6545 27.0589 34.6545 27.2723V29.0469C34.6545 29.3766 34.5284 29.6482 34.2763 29.8615L29.2724 35.0109L29.6215 35.04C31.4834 35.1951 32.9623 35.7576 34.0581 36.7273C35.1539 37.6971 35.7018 39.0838 35.7018 40.8875C35.7018 42.1676 35.3576 43.2828 34.669 44.2332C33.9805 45.1835 33.0302 45.9156 31.818 46.4296C30.6058 46.9436 29.2239 47.2006 27.6723 47.2006ZM46.2623 47.2006C44.6332 47.2006 43.2028 46.8903 41.9712 46.2696C40.7396 45.649 39.7893 44.7956 39.1202 43.7095C38.451 42.6234 38.1165 41.4015 38.1165 40.0438C38.1165 38.3371 38.8729 36.4558 40.3857 34.3999L45.6805 27.1268C45.8357 26.9329 45.9811 26.7874 46.1169 26.6904C46.2526 26.5935 46.4466 26.545 46.6987 26.545H49.4625C49.6371 26.545 49.7777 26.608 49.8844 26.7341C49.991 26.8602 50.0444 27.0104 50.0444 27.185C50.0444 27.3208 50.0056 27.4468 49.928 27.5632L45.8551 33.178C46.1654 33.1005 46.5727 33.0617 47.0769 33.0617C48.3764 33.0811 49.574 33.3962 50.6698 34.0072C51.7657 34.6181 52.6384 35.4472 53.2882 36.4946C53.9379 37.5419 54.2628 38.7056 54.2628 39.9857C54.2628 41.3045 53.9379 42.5119 53.2882 43.6077C52.6384 44.7035 51.7075 45.5762 50.4953 46.226C49.2831 46.8757 47.8721 47.2006 46.2623 47.2006ZM46.2042 43.8259C47.2903 43.8259 48.2115 43.4913 48.968 42.8222C49.7244 42.153 50.1025 41.2269 50.1025 40.0438C50.1025 38.8801 49.7292 37.9638 48.9825 37.2946C48.2358 36.6255 47.3097 36.2909 46.2042 36.2909C45.118 36.2909 44.2017 36.6255 43.4549 37.2946C42.7082 37.9638 42.3349 38.8801 42.3349 40.0438C42.3349 41.2269 42.7082 42.153 43.4549 42.8222C44.2017 43.4913 45.118 43.8259 46.2042 43.8259Z" fill="white"/>
</g>
<path fill-rule="evenodd" clip-rule="evenodd" d="M46.1951 39.4475C46.3914 39.4475 46.5606 39.5129 46.7024 39.6438C46.8442 39.7748 46.9042 39.9384 46.8824 40.1348C46.8387 41.4221 46.4296 42.6058 45.655 43.6859C44.8805 44.7659 43.7622 45.6278 42.3003 46.2715C40.8384 46.9151 39.1256 47.2369 37.1619 47.2369C34.369 47.2369 32.1598 46.5769 30.5343 45.2569C28.9087 43.9368 27.9432 42.044 27.6378 39.5784H25.5104C25.2922 39.5784 25.1067 39.502 24.954 39.3493C24.8013 39.1965 24.7249 39.0111 24.7249 38.7929V36.8946C24.7249 36.6546 24.8013 36.4637 24.954 36.3219C25.1067 36.18 25.2922 36.1091 25.5104 36.1091H27.5396V34.8654H25.5104C25.2922 34.8654 25.1067 34.789 24.954 34.6363C24.8013 34.4836 24.7249 34.2981 24.7249 34.0799V32.1816C24.7249 31.9416 24.8013 31.7507 24.954 31.6089C25.1067 31.4671 25.2922 31.3962 25.5104 31.3962H27.6378C27.9214 28.9087 28.876 26.9996 30.5015 25.6686C32.1271 24.3376 34.3472 23.6721 37.1619 23.6721C39.1256 23.6721 40.8384 23.994 42.3003 24.6376C43.7622 25.2813 44.8805 26.1432 45.655 27.2232C46.4296 28.3033 46.8387 29.487 46.8824 30.7743V30.8398C46.8824 31.0143 46.8115 31.1616 46.6696 31.2816C46.5278 31.4016 46.3696 31.4616 46.1951 31.4616H43.0204C42.7585 31.4616 42.5512 31.4016 42.3985 31.2816C42.2458 31.1616 42.1258 30.9489 42.0385 30.6434C41.7112 29.5306 41.1439 28.7233 40.3366 28.2214C39.5293 27.7196 38.4711 27.4687 37.1619 27.4687C34.4563 27.4687 32.8853 28.7778 32.4489 31.3962H37.8492C38.0892 31.3962 38.2801 31.4671 38.422 31.6089C38.5638 31.7507 38.6347 31.9416 38.6347 32.1816V34.0799C38.6347 34.2981 38.5583 34.4836 38.4056 34.6363C38.2528 34.789 38.0674 34.8654 37.8492 34.8654H32.318V36.1091H37.8492C38.0892 36.1091 38.2801 36.18 38.422 36.3219C38.5638 36.4637 38.6347 36.6546 38.6347 36.8946V38.7929C38.6347 39.0111 38.5638 39.1965 38.422 39.3493C38.2801 39.502 38.0892 39.5784 37.8492 39.5784H32.4489C32.8853 42.1531 34.4563 43.4404 37.1619 43.4404C38.4711 43.4404 39.5293 43.1895 40.3366 42.6876C41.1439 42.1858 41.7112 41.3785 42.0385 40.2657C42.1258 39.9602 42.2458 39.7475 42.3985 39.6275C42.5512 39.5075 42.7585 39.4475 43.0204 39.4475H46.1951Z" fill="white"/>
<path fill-rule="evenodd" clip-rule="evenodd" d="M49.1429 69.8571L74.8571 44.1429C77.6975 41.3025 82.3025 41.3025 85.1429 44.1429L110.857 69.8571C113.697 72.6975 113.697 77.3025 110.857 80.1429L85.1429 105.857C82.3025 108.697 77.6975 108.697 74.8571 105.857L49.1429 80.1429C46.3025 77.3025 46.3025 72.6975 49.1429 69.8571Z" fill="#017EE5"/>
<path opacity="0.08" d="M67.5715 71.9772C66.6328 71.9772 65.8328 71.8279 65.1715 71.5292C64.5208 71.2306 64.0301 70.8572 63.6995 70.4092C63.3795 69.9506 63.2088 69.4812 63.1875 69.0012C63.1875 68.9052 63.2195 68.8306 63.2835 68.7772C63.3581 68.7132 63.4435 68.6812 63.5395 68.6812H64.9795C65.2141 68.6812 65.3688 68.7879 65.4435 69.0012C65.6781 69.7692 66.3928 70.1532 67.5875 70.1532C68.2381 70.1532 68.7501 70.0039 69.1235 69.7052C69.4968 69.3959 69.6835 68.9586 69.6835 68.3932C69.6835 67.3266 69.0168 66.7932 67.6835 66.7932H66.0355C65.9181 66.7932 65.8221 66.7559 65.7475 66.6812C65.6728 66.6066 65.6355 66.5159 65.6355 66.4092V65.7372C65.6355 65.5666 65.7101 65.4066 65.8595 65.2572L68.7235 62.4572H64.1475C64.0408 62.4572 63.9501 62.4199 63.8755 62.3452C63.8008 62.2706 63.7635 62.1799 63.7635 62.0732V61.0172C63.7635 60.8999 63.7955 60.8039 63.8595 60.7292C63.9341 60.6546 64.0301 60.6172 64.1475 60.6172H71.0115C71.1288 60.6172 71.2248 60.6546 71.2995 60.7292C71.3741 60.8039 71.4115 60.8999 71.4115 61.0172V61.9772C71.4115 62.1372 71.3421 62.2866 71.2035 62.4252L68.4355 65.2732L68.6275 65.2892C69.6515 65.3746 70.4621 65.6839 71.0595 66.2172C71.6675 66.7506 71.9715 67.5132 71.9715 68.5052C71.9715 69.2092 71.7795 69.8226 71.3955 70.3452C71.0221 70.8679 70.4995 71.2732 69.8275 71.5612C69.1661 71.8386 68.4141 71.9772 67.5715 71.9772ZM77.7776 71.9772C76.8816 71.9772 76.0976 71.8066 75.4256 71.4652C74.7536 71.1239 74.2363 70.6599 73.8736 70.0732C73.5109 69.4759 73.3296 68.8039 73.3296 68.0572C73.3296 67.1079 73.7403 66.0732 74.5616 64.9532L77.4896 60.9372C77.5536 60.8412 77.6229 60.7666 77.6976 60.7132C77.7829 60.6492 77.8949 60.6172 78.0336 60.6172H79.5216C79.6176 60.6172 79.6976 60.6546 79.7616 60.7292C79.8256 60.7932 79.8576 60.8732 79.8576 60.9692C79.8576 61.0226 79.8309 61.0919 79.7776 61.1772L77.5376 64.2812C77.7509 64.2279 77.9803 64.2012 78.2256 64.2012C78.9403 64.2226 79.5963 64.4039 80.1936 64.7452C80.8016 65.0759 81.2816 65.5292 81.6336 66.1052C81.9963 66.6812 82.1776 67.3212 82.1776 68.0252C82.1776 68.7399 81.9963 69.4012 81.6336 70.0092C81.2816 70.6066 80.7696 71.0866 80.0976 71.4492C79.4363 71.8012 78.6629 71.9772 77.7776 71.9772ZM77.7616 70.1372C78.3696 70.1372 78.8816 69.9559 79.2976 69.5932C79.7136 69.2199 79.9216 68.7026 79.9216 68.0412C79.9216 67.3906 79.7136 66.8839 79.2976 66.5212C78.8816 66.1479 78.3696 65.9612 77.7616 65.9612C77.1536 65.9612 76.6416 66.1479 76.2256 66.5212C75.8096 66.8839 75.6016 67.3906 75.6016 68.0412C75.6016 68.7026 75.8096 69.2199 76.2256 69.5932C76.6416 69.9559 77.1536 70.1372 77.7616 70.1372Z" fill="white"/>
<path d="M84.3985 81.4246H70.6662C69.7959 81.4246 69.0904 82.1301 69.0904 83.0004C69.0904 83.8707 69.7959 84.5763 70.6662 84.5763H84.3985C85.2688 84.5763 85.9743 83.8707 85.9743 83.0004C85.9743 82.1301 85.2688 81.4246 84.3985 81.4246Z" fill="white"/>
<path fill-rule="evenodd" clip-rule="evenodd" d="M73.3881 87.7279C73.1323 87.7279 72.9148 87.6491 72.7357 87.4915C72.5567 87.334 72.4671 87.1426 72.4671 86.9175V64.9345C72.4671 64.6869 72.5503 64.4843 72.7166 64.3267C72.8828 64.1691 73.1067 64.0903 73.3881 64.0903H90.0802C90.3616 64.0903 90.5918 64.1691 90.7709 64.3267C90.95 64.4843 91.0395 64.6869 91.0395 64.9345V67.3658C91.0395 67.591 90.95 67.7823 90.7709 67.9399C90.5918 68.0975 90.3616 68.1763 90.0802 68.1763H77.8009V74.5246H89.3127C89.5941 74.5246 89.8244 74.6034 90.0035 74.761C90.1825 74.9186 90.2721 75.11 90.2721 75.3351V77.7664C90.2721 77.9915 90.1825 78.1828 90.0035 78.3404C89.8244 78.498 89.5941 78.5768 89.3127 78.5768H77.8009V86.9175C77.8009 87.1426 77.7114 87.334 77.5323 87.4915C77.3533 87.6491 77.123 87.7279 76.8416 87.7279H73.3881Z" fill="white"/>
</svg>
