<?xml version="1.0" encoding="UTF-8" standalone="no"?>
<svg
   xmlns:dc="http://purl.org/dc/elements/1.1/"
   xmlns:cc="http://creativecommons.org/ns#"
   xmlns:rdf="http://www.w3.org/1999/02/22-rdf-syntax-ns#"
   xmlns:svg="http://www.w3.org/2000/svg"
   xmlns="http://www.w3.org/2000/svg"
   xmlns:xlink="http://www.w3.org/1999/xlink"
   xmlns:sodipodi="http://sodipodi.sourceforge.net/DTD/sodipodi-0.dtd"
   xmlns:inkscape="http://www.inkscape.org/namespaces/inkscape"
   version="1.1"
   width="24"
   height="24"
   viewBox="0 0 24 24"
   id="svg4"
   sodipodi:docname="wallet offline-new.svg"
   inkscape:version="0.92.3 (2405546, 2018-03-11)">
  <metadata
     id="metadata10">
    <rdf:RDF>
      <cc:Work
         rdf:about="">
        <dc:format>image/svg+xml</dc:format>
        <dc:type
           rdf:resource="http://purl.org/dc/dcmitype/StillImage" />
        <dc:title></dc:title>
      </cc:Work>
    </rdf:RDF>
  </metadata>
  <defs
     id="defs8">
    <linearGradient
       gradientTransform="translate(-0.17293888,-0.2157277)"
       inkscape:collect="always"
       xlink:href="#linearGradient4594"
       id="linearGradient4596"
       x1="3.6904957"
       y1="10.588941"
       x2="23.117954"
       y2="10.588941"
       gradientUnits="userSpaceOnUse" />
    <linearGradient
       inkscape:collect="always"
       id="linearGradient4594">
      <stop
         style="stop-color:#e5cf00;stop-opacity:1;"
         offset="0"
         id="stop4590" />
      <stop
         style="stop-color:#e5cf00;stop-opacity:0;"
         offset="1"
         id="stop4592" />
    </linearGradient>
  </defs>
  <sodipodi:namedview
     pagecolor="#ffffff"
     bordercolor="#666666"
     borderopacity="1"
     objecttolerance="10"
     gridtolerance="10"
     guidetolerance="10"
     inkscape:pageopacity="0"
     inkscape:pageshadow="2"
     inkscape:window-width="1471"
     inkscape:window-height="1120"
     id="namedview6"
     showgrid="false"
     inkscape:zoom="13.906433"
     inkscape:cx="-7.0909052"
     inkscape:cy="15.217206"
     inkscape:window-x="471"
     inkscape:window-y="277"
     inkscape:window-maximized="0"
     inkscape:current-layer="svg4" />
  <path
     d="m 20.558558,17.688394 v 0.948065 A 1.8961312,1.8961312 0 0 1 18.662426,20.53259 H 5.389508 c -1.0523528,0 -1.8961312,-0.853259 -1.8961312,-1.896131 V 5.3635408 A 1.8961312,1.8961312 0 0 1 5.389508,3.4674096 h 13.272918 a 1.8961312,1.8961312 0 0 1 1.896132,1.8961312 v 0.9480656 h -8.532591 c -1.052353,0 -1.896131,0.853259 -1.896131,1.8961312 v 7.5845244 a 1.8961312,1.8961312 0 0 0 1.896131,1.896132 m 0,-1.896132 h 9.480656 V 8.2077376 H 12.025967 M 15.81823,13.422098 A 1.4220984,1.4220984 0 0 1 14.396131,12 1.4220984,1.4220984 0 0 1 15.81823,10.577902 1.4220984,1.4220984 0 0 1 17.240328,12 1.4220984,1.4220984 0 0 1 15.81823,13.422098 Z"
     id="path2"
     inkscape:connector-curvature="0"
     style="stroke-width:0.94806558" />
  <path
     style="fill:none;stroke:#000000;stroke-width:2;stroke-linecap:butt;stroke-linejoin:miter;stroke-miterlimit:4;stroke-dasharray:none;stroke-opacity:1"
     d="M 3.6549024,3.5653319 20.434668,20.345098"
     id="path62"
     inkscape:connector-curvature="0" />
  <path
     style="fill:url(#linearGradient4596);fill-opacity:1;stroke:#ffffff;stroke-width:2;stroke-linecap:butt;stroke-linejoin:miter;stroke-miterlimit:4;stroke-dasharray:none;stroke-opacity:1"
     d="M 4.2246637,1.3665903 22.237909,19.379836"
     id="path62-3"
     inkscape:connector-curvature="0" />
</svg>
