<?xml version="1.0" encoding="UTF-8"?>
<svg width="82px" height="104px" viewBox="0 0 82 104" version="1.1" xmlns="http://www.w3.org/2000/svg" xmlns:xlink="http://www.w3.org/1999/xlink">
    <!-- Generator: sketchtool 52.2 (67145) - http://www.bohemiancoding.com/sketch -->
    <title>2C0C2DA1-8555-4351-AD73-A523822C9CE6</title>
    <desc>Created with sketchtool.</desc>
    <defs>
        <linearGradient x1="143.751084%" y1="-43.4378773%" x2="-9.47100473%" y2="110.689304%" id="linearGradient-1">
            <stop stop-color="#69B4EF" offset="0%"></stop>
            <stop stop-color="#623479" offset="100%"></stop>
        </linearGradient>
        <path d="M231.0292,108.043789 C230.41216,107.470823 230.103645,106.699535 230.103645,105.7299 L230.103645,96.4743449 C223.756946,95.8573047 218.313852,94.3147276 213.7742,91.8465671 C209.234548,89.3784066 205.796804,86.3593627 203.460867,82.7893449 C201.124929,79.219327 199.868831,75.4069577 199.692533,71.3521226 C199.692533,70.6469339 199.979012,70.0078662 200.551978,69.4349004 C201.124944,68.8619346 201.808085,68.575456 202.601422,68.575456 L214.501422,68.575456 C215.559205,68.575456 216.374568,68.7737873 216.947533,69.170456 C217.520499,69.5671246 218.07142,70.2061923 218.600311,71.0876782 C219.569946,74.0847302 221.61937,76.5969273 224.748645,78.6243449 C227.877919,80.6517624 232.175099,81.665456 237.640311,81.665456 C243.722564,81.665456 248.328259,80.6297256 251.457533,78.5582337 C254.586808,76.4867419 256.151422,73.6439926 256.151422,70.0299004 C256.151422,67.6498885 255.358097,65.666575 253.771422,64.0799004 C252.184748,62.4932258 249.782735,61.1049064 246.565311,59.9149004 C243.347888,58.7248945 238.609972,57.2925014 232.351422,55.6176782 C221.949889,53.1495177 214.32515,49.8880688 209.476978,45.8332337 C204.628805,41.7783987 202.204756,35.9606791 202.204756,28.3799004 C202.204756,21.5043105 204.694916,15.6865909 209.675311,10.9265671 C214.655706,6.16654328 221.465083,3.25768348 230.103645,2.19990041 L230.103645,-6.92343292 C230.103645,-7.8930674 230.41216,-8.66435598 231.0292,-9.23732181 C231.64624,-9.81028764 232.395492,-10.0967663 233.276978,-10.0967663 L241.474756,-10.0967663 C242.44439,-10.0967663 243.215679,-9.81028764 243.788645,-9.23732181 C244.36161,-8.66435598 244.648089,-7.8930674 244.648089,-6.92343292 L244.648089,2.46434486 C250.377747,3.25768216 255.291957,4.95451704 259.390867,7.55490041 C263.489776,10.1552838 266.619004,13.1743277 268.778645,16.6121226 C270.938285,20.0499176 272.106236,23.3995137 272.282533,26.6610115 C272.282533,27.4543488 272.018092,28.1154533 271.4892,28.6443449 C270.960309,29.1732364 270.299204,29.4376782 269.505867,29.4376782 L256.944756,29.4376782 C255.093635,29.4376782 253.8155,28.6443528 253.110311,27.0576782 C252.58142,24.2369233 250.840511,21.878984 247.887533,19.9837893 C244.934556,18.0885946 241.254407,17.1410115 236.846978,17.1410115 C231.998805,17.1410115 228.186436,18.0665578 225.409756,19.9176782 C222.633075,21.7687986 221.244756,24.4572902 221.244756,27.9832337 C221.244756,30.3632456 221.927897,32.3465591 223.2942,33.9332337 C224.660503,35.5199083 226.864185,36.9302646 229.905311,38.1643449 C232.946438,39.3984251 237.28769,40.7206341 242.9292,42.1310115 C250.774425,43.8939833 257.010844,45.8772968 261.638645,48.0810115 C266.266445,50.2847262 269.682152,53.0613651 271.885867,56.4110115 C274.089581,59.7606579 275.191422,64.0358003 275.191422,69.2365671 C275.191422,76.9054943 272.43682,83.1198766 266.927533,87.8799004 C261.418247,92.6399242 253.991839,95.5047104 244.648089,96.4743449 L244.648089,105.7299 C244.648089,106.699535 244.36161,107.470823 243.788645,108.043789 C243.215679,108.616755 242.44439,108.903234 241.474756,108.903234 L233.276978,108.903234 C232.395492,108.903234 231.64624,108.616755 231.0292,108.043789 Z" id="path-2"></path>
    </defs>
    <g id="Web-App---Desktop" stroke="none" stroke-width="1" fill="none" fill-rule="evenodd" opacity="0.05">
        <g id="Home---Tier-0-User" transform="translate(-606.000000, -315.000000)">
            <g id="Top" transform="translate(0.000000, -2.000000)">
                <g id="Balances" transform="translate(115.000000, 317.000000)">
                    <g id="Balance-2-" transform="translate(298.000000, 0.000000)">
                        <g id="$" transform="translate(237.441978, 49.403234) rotate(-30.000000) translate(-237.441978, -49.403234) ">
                            <use fill="#FFFFFF" xlink:href="#path-2"></use>
                            <use fill="url(#linearGradient-1)" xlink:href="#path-2"></use>
                        </g>
                    </g>
                </g>
            </g>
        </g>
    </g>
</svg>