<?xml version="1.0" encoding="UTF-8"?>
<svg width="38px" height="38px" viewBox="0 0 38 38" version="1.1" xmlns="http://www.w3.org/2000/svg" xmlns:xlink="http://www.w3.org/1999/xlink">
    <!-- Generator: sketchtool 52.2 (67145) - http://www.bohemiancoding.com/sketch -->
    <title>DAC2DD1B-BA50-423B-BA63-6A575515F085</title>
    <desc>Created with sketchtool.</desc>
    <defs>
        <linearGradient x1="143.751084%" y1="-43.4378773%" x2="-9.47100473%" y2="110.689304%" id="linearGradient-1">
            <stop stop-color="#F5EBA9" offset="0%"></stop>
            <stop stop-color="#FF6464" offset="100%"></stop>
        </linearGradient>
        <path d="M15.42,26.16 C14.4706619,26.16 13.6680033,26.0106682 13.012,25.712 C12.3559967,25.4133318 11.865335,25.0373356 11.54,24.584 C11.214665,24.1306644 11.0413334,23.6640024 11.02,23.184 C11.02,23.0879995 11.0519997,23.0080003 11.116,22.944 C11.1800003,22.8799997 11.2599995,22.848 11.356,22.848 L12.828,22.848 C13.0626678,22.848 13.2226662,22.9546656 13.308,23.168 C13.5426678,23.9253371 14.2466608,24.304 15.42,24.304 C16.0706699,24.304 16.5799982,24.1546682 16.948,23.856 C17.3160018,23.5573318 17.5,23.1306694 17.5,22.576 C17.5,22.0213306 17.3320017,21.6186679 16.996,21.368 C16.6599983,21.1173321 16.1666699,20.992 15.516,20.992 L13.868,20.992 C13.7613328,20.992 13.670667,20.954667 13.596,20.88 C13.521333,20.805333 13.484,20.7146672 13.484,20.608 L13.484,19.92 C13.484,19.7173323 13.5533326,19.5573339 13.692,19.44 L16.54,16.656 L11.98,16.656 C11.8626661,16.656 11.766667,16.618667 11.692,16.544 C11.617333,16.469333 11.58,16.3786672 11.58,16.272 L11.58,15.2 C11.58,15.0826661 11.617333,14.986667 11.692,14.912 C11.766667,14.837333 11.8626661,14.8 11.98,14.8 L18.86,14.8 C18.9773339,14.8 19.073333,14.837333 19.148,14.912 C19.222667,14.986667 19.26,15.0826661 19.26,15.2 L19.26,16.176 C19.26,16.3573342 19.1906674,16.5066661 19.052,16.624 L16.3,19.456 L16.492,19.472 C17.5160051,19.5573338 18.3293303,19.866664 18.932,20.4 C19.5346697,20.933336 19.836,21.695995 19.836,22.688 C19.836,23.3920035 19.6466686,24.0053307 19.268,24.528 C18.8893314,25.0506693 18.36667,25.4533319 17.7,25.736 C17.03333,26.0186681 16.2733376,26.16 15.42,26.16 Z M25.644,26.16 C24.7479955,26.16 23.9613367,25.989335 23.284,25.648 C22.6066633,25.306665 22.0840018,24.8373363 21.716,24.24 C21.3479982,23.6426637 21.164,22.9706704 21.164,22.224 C21.164,21.2853286 21.5799958,20.2506723 22.412,19.12 L25.324,15.12 C25.4093338,15.0133328 25.489333,14.9333336 25.564,14.88 C25.638667,14.8266664 25.7453326,14.8 25.884,14.8 L27.404,14.8 C27.5000005,14.8 27.577333,14.8346663 27.636,14.904 C27.694667,14.9733337 27.724,15.0559995 27.724,15.152 C27.724,15.226667 27.7026669,15.2959997 27.66,15.36 L25.42,18.448 C25.5906675,18.4053331 25.8146653,18.384 26.092,18.384 C26.8066702,18.3946667 27.4653303,18.5679983 28.068,18.904 C28.6706697,19.2400017 29.1506649,19.6959971 29.508,20.272 C29.8653351,20.8480029 30.044,21.4879965 30.044,22.192 C30.044,22.917337 29.8653351,23.5813303 29.508,24.184 C29.1506649,24.7866697 28.63867,25.2666649 27.972,25.624 C27.30533,25.9813351 26.5293378,26.16 25.644,26.16 Z M25.612,24.304 C26.2093363,24.304 26.7159979,24.1200018 27.132,23.752 C27.5480021,23.3839982 27.756,22.8746699 27.756,22.224 C27.756,21.5839968 27.5506687,21.0800018 27.14,20.712 C26.7293313,20.3439982 26.220003,20.16 25.612,20.16 C25.0146637,20.16 24.5106687,20.3439982 24.1,20.712 C23.6893313,21.0800018 23.484,21.5839968 23.484,22.224 C23.484,22.8746699 23.6893313,23.3839982 24.1,23.752 C24.5106687,24.1200018 25.0146637,24.304 25.612,24.304 Z" id="path-2"></path>
    </defs>
    <g id="Web-App---Desktop" stroke="none" stroke-width="1" fill="none" fill-rule="evenodd">
        <g id="Home---Tier-0-User" transform="translate(-430.000000, -365.000000)">
            <g id="Top" transform="translate(0.000000, -2.000000)">
                <g id="Balances" transform="translate(115.000000, 317.000000)">
                    <g id="Balance-2-" transform="translate(298.000000, 0.000000)">
                        <g id="Icon" transform="translate(16.000000, 49.000000)">
                            <path d="M10,6 L30,6 C32.209139,6 34,7.790861 34,10 L34,30 C34,32.209139 32.209139,34 30,34 L10,34 C7.790861,34 6,32.209139 6,30 L6,10 C6,7.790861 7.790861,6 10,6 Z" id="Container" fill="url(#linearGradient-1)" transform="translate(20.000000, 20.000000) rotate(-45.000000) translate(-20.000000, -20.000000) "></path>
                            <g id="36" opacity="0.08">
                                <use fill="#017EE5" xlink:href="#path-2"></use>
                                <use fill="#FFFFFF" xlink:href="#path-2"></use>
                            </g>
                            <path d="M19.424,27.8 C19.3039994,27.8 19.2020004,27.7610004 19.118,27.683 C19.0339996,27.6049996 18.992,27.5000007 18.992,27.368 L18.992,26.108 C18.1279957,26.0239996 17.3870031,25.8140017 16.769,25.478 C16.1509969,25.1419983 15.6830016,24.7310024 15.365,24.245 C15.0469984,23.7589976 14.8760001,23.2400028 14.852,22.688 C14.852,22.5919995 14.8909996,22.5050004 14.969,22.427 C15.0470004,22.3489996 15.1399995,22.31 15.248,22.31 L16.868,22.31 C17.0120007,22.31 17.1229996,22.3369997 17.201,22.391 C17.2790004,22.4450003 17.3539996,22.5319994 17.426,22.652 C17.5580007,23.060002 17.8369979,23.4019986 18.263,23.678 C18.6890021,23.9540014 19.2739963,24.092 20.018,24.092 C20.8460041,24.092 21.4729979,23.9510014 21.899,23.669 C22.3250021,23.3869986 22.538,23.0000025 22.538,22.508 C22.538,22.1839984 22.4300011,21.9140011 22.214,21.698 C21.9979989,21.4819989 21.6710022,21.2930008 21.233,21.131 C20.7949978,20.9689992 20.1500043,20.7740011 19.298,20.546 C17.8819929,20.2099983 16.8440033,19.7660028 16.184,19.214 C15.5239967,18.6619972 15.194,17.8700052 15.194,16.838 C15.194,15.9019953 15.5329966,15.1100032 16.211,14.462 C16.8890034,13.8139968 17.8159941,13.4180007 18.992,13.274 L18.992,12.032 C18.992,11.8999993 19.0339996,11.7950004 19.118,11.717 C19.2020004,11.6389996 19.3039994,11.6 19.424,11.6 L20.54,11.6 C20.6720007,11.6 20.7769996,11.6389996 20.855,11.717 C20.9330004,11.7950004 20.972,11.8999993 20.972,12.032 L20.972,13.31 C21.7520039,13.4180005 22.4209972,13.6489982 22.979,14.003 C23.5370028,14.3570018 23.9629985,14.7679977 24.257,15.236 C24.5510015,15.7040023 24.7099999,16.1599978 24.734,16.604 C24.734,16.7120005 24.6980004,16.8019996 24.626,16.874 C24.5539996,16.9460004 24.4640005,16.982 24.356,16.982 L22.646,16.982 C22.3939987,16.982 22.2200005,16.8740011 22.124,16.658 C22.0519996,16.2739981 21.815002,15.9530013 21.413,15.695 C21.010998,15.4369987 20.510003,15.308 19.91,15.308 C19.2499967,15.308 18.7310019,15.4339987 18.353,15.686 C17.9749981,15.9380013 17.786,16.3039976 17.786,16.784 C17.786,17.1080016 17.8789991,17.3779989 18.065,17.594 C18.2510009,17.8100011 18.5509979,18.0019992 18.965,18.17 C19.3790021,18.3380008 19.9699962,18.517999 20.738,18.71 C21.8060053,18.9500012 22.6549968,19.2199985 23.285,19.52 C23.9150031,19.8200015 24.3799985,20.1979977 24.68,20.654 C24.9800015,21.1100023 25.13,21.6919965 25.13,22.4 C25.13,23.4440052 24.7550038,24.2899968 24.005,24.938 C23.2549962,25.5860032 22.2440064,25.9759993 20.972,26.108 L20.972,27.368 C20.972,27.5000007 20.9330004,27.6049996 20.855,27.683 C20.7769996,27.7610004 20.6720007,27.8 20.54,27.8 L19.424,27.8 Z" id="$" fill="#FFFFFF"></path>
                        </g>
                    </g>
                </g>
            </g>
        </g>
    </g>
</svg>