<?xml version="1.0" encoding="UTF-8"?>
<svg width="67px" height="40px" viewBox="0 0 67 40" version="1.1" xmlns="http://www.w3.org/2000/svg" xmlns:xlink="http://www.w3.org/1999/xlink">
    <!-- Generator: Sketch 54.1 (76490) - https://sketchapp.com -->
    <title>ID Front Icon</title>
    <desc>Created with Sketch.</desc>
    <g id="Web-App---Desktop" stroke="none" stroke-width="1" fill="none" fill-rule="evenodd">
        <g id="Verification---Id-verification" transform="translate(-238.000000, -304.000000)">
            <g id="Modal" transform="translate(222.000000, 202.000000)">
                <g id="ID-Front-Icon" transform="translate(17.000000, 104.000000)">
                    <path d="M30.4950495,10 L54.5544554,10" id="Line" stroke="#1F8EEA" stroke-width="2.352" stroke-linecap="round" stroke-linejoin="bevel"></path>
                    <path d="M30.4950495,17.2 L54.5544554,17.2" id="Line" stroke="#1F8EEA" stroke-width="2.352" stroke-linecap="round" stroke-linejoin="bevel"></path>
                    <path d="M31.2970297,24.4 L47.3366337,24.4" id="Line" stroke="#1F8EEA" stroke-width="2.352" stroke-linecap="round" stroke-linejoin="bevel"></path>
                    <path d="M14.661669,9.6 C16.7117625,9.6 18.3736917,11.4420285 18.3736917,13.7142857 C18.3736917,15.986543 16.7117625,17.8285714 14.661669,17.8285714 C12.6115755,17.8285714 10.9496464,15.986543 10.9496464,13.7142857 C10.9496464,11.4420285 12.6115755,9.6 14.661669,9.6 L14.661669,9.6 Z M14.4554455,19.6571429 C18.4432921,19.6571429 21.6732673,21.4300952 21.6732673,23.6190476 L21.6732673,25.6 L7.23762376,25.6 L7.23762376,23.6190476 C7.23762376,21.4300952 10.467599,19.6571429 14.4554455,19.6571429 Z" id="contact-icon" fill="#1F8EEA" fill-rule="nonzero"></path>
                    <rect id="Rectangle" stroke="#0D84E7" stroke-width="1.68" stroke-linecap="round" stroke-linejoin="round" x="-0.0182178218" y="-0.84" width="64.2344554" height="37.68" rx="2.688"></rect>
                </g>
            </g>
        </g>
    </g>
</svg>