<?xml version="1.0" encoding="UTF-8"?>
<svg width="83px" height="105px" viewBox="0 0 83 105" version="1.1" xmlns="http://www.w3.org/2000/svg" xmlns:xlink="http://www.w3.org/1999/xlink">
    <!-- Generator: sketchtool 52.2 (67145) - http://www.bohemiancoding.com/sketch -->
    <title>B7015C1E-A9D6-47F8-A025-A1D510DCF92A</title>
    <desc>Created with sketchtool.</desc>
    <g id="Web-App---Desktop" stroke="none" stroke-width="1" fill="none" fill-rule="evenodd">
        <g id="Home---Tier-0-User" transform="translate(-903.000000, -315.000000)" fill="#F8F8FB">
            <g id="Top" transform="translate(0.000000, -2.000000)">
                <g id="Balances" transform="translate(115.000000, 317.000000)">
                    <g id="Balance-3" transform="translate(596.000000, 0.000000)">
                        <path d="M246.903625,94.1107902 C243.172202,94.1107902 239.918102,93.5452898 237.141229,92.4142721 C234.364355,91.2832543 231.197032,89.6737533 227.639163,87.5857205 C224.688735,85.8456933 222.345783,84.6059424 220.610237,83.8664308 C218.874691,83.1269192 216.965619,82.757169 214.882964,82.757169 C212.106091,82.757169 210.023467,83.4531695 208.63503,84.8451913 C207.246594,86.2372131 206.205282,88.3252145 205.511063,91.1092581 C205.337509,91.7182677 205.077181,92.218518 204.730072,92.6100242 C204.382962,93.0015303 203.818919,93.1972804 203.037923,93.1972804 L193.015196,93.1972804 C192.320977,93.1972804 191.735239,92.9580303 191.257964,92.4795228 C190.780689,92.0010153 190.542055,91.4137649 190.542055,90.717754 C190.71561,85.1496667 192.12572,80.5169136 194.772427,76.8193556 C197.419134,73.1217977 200.911868,70.577046 205.250733,69.1850242 C205.163956,66.748986 204.881934,64.0519842 204.404658,61.0939378 C203.927383,58.1358914 203.645361,56.3088902 203.558584,55.6128793 L193.666022,55.6128793 C192.798249,55.6128793 192.060653,55.3083791 191.453212,54.6993696 C190.845771,54.09036 190.542055,53.3508595 190.542055,52.4808459 L190.542055,45.1727679 C190.542055,44.2157529 190.845771,43.4545024 191.453212,42.8889935 C192.060653,42.3234846 192.798249,42.0407345 193.666022,42.0407345 L200.955278,42.0407345 C200.694946,39.6916976 200.564782,37.0816959 200.564782,34.2106509 C200.564782,23.7704873 203.450084,15.5272317 209.220774,9.48063696 C214.991464,3.4340422 223.300265,0.410790167 234.147427,0.410790167 C241.08961,0.410790167 247.142236,1.67229102 252.305485,4.19533056 C257.468734,6.7183701 261.438735,10.2418725 264.215609,14.7659434 C266.992482,19.2900143 268.467674,24.4665178 268.641229,30.2956091 C268.641229,31.0786214 268.380901,31.7311218 267.860237,32.25313 C267.339573,32.7751382 266.688753,33.0361384 265.907758,33.0361384 L253.41189,33.0361384 C251.502789,33.0361384 250.201149,31.9921377 249.506931,29.9041049 C247.511053,20.3339549 242.39127,15.5489517 234.147427,15.5489517 C229.287899,15.5489517 225.643307,17.2237029 223.213543,20.5732553 C220.783779,23.9228078 219.568915,28.5120609 219.568915,34.3411523 C219.568915,37.9082082 219.655691,40.4747099 219.829245,42.0407345 L242.08751,42.0407345 C242.955283,42.0407345 243.692879,42.3452347 244.30032,42.9542442 C244.907761,43.5632538 245.211477,44.3027542 245.211477,45.1727679 L245.211477,52.4808459 C245.211477,53.3508595 244.907761,54.09036 244.30032,54.6993696 C243.692879,55.3083791 242.955283,55.6128793 242.08751,55.6128793 L220.870568,55.6128793 C221.564786,61.7029747 221.955278,66.3139778 222.042055,69.4460269 C224.211487,69.8810338 226.098865,70.4900342 227.704245,71.2730464 C229.309625,72.0560587 231.240391,73.1870595 233.496601,74.6660826 C235.75281,76.1451058 237.683576,77.2543566 239.288956,77.9938682 C240.894336,78.7333798 242.694938,79.10313 244.690815,79.10313 C247.728021,79.10313 250.049278,78.3201295 251.654658,76.7541049 C253.260038,75.1880804 254.496596,72.9260789 255.364369,69.9680325 C255.537924,69.4460243 255.819946,68.989274 256.210444,68.5977679 C256.600941,68.2062617 257.099903,68.0105116 257.707344,68.0105116 L266.818915,68.0105116 C267.59991,68.0105116 268.207342,68.2497618 268.641229,68.7282693 C269.075115,69.2067768 269.292055,69.7940272 269.292055,70.4900381 C269.205278,75.4491158 268.120578,79.6903686 266.037923,83.2139239 C263.955268,86.7374791 261.243518,89.4344809 257.902592,91.3050102 C254.561667,93.1755395 250.895381,94.1107902 246.903625,94.1107902 Z" id="£" transform="translate(229.917055, 47.260790) rotate(-30.000000) translate(-229.917055, -47.260790) "></path>
                    </g>
                </g>
            </g>
        </g>
    </g>
</svg>