<?xml version="1.0" encoding="UTF-8"?>
<svg width="27px" height="27px" viewBox="0 0 27 27" version="1.1" xmlns="http://www.w3.org/2000/svg" xmlns:xlink="http://www.w3.org/1999/xlink">
    <!-- Generator: sketchtool 52.4 (67378) - http://www.bohemiancoding.com/sketch -->
    <title>10F9E662-750C-49DC-89E1-22102939203A</title>
    <desc>Created with sketchtool.</desc>
    <g id="Web-App---Desktop" stroke="none" stroke-width="1" fill="none" fill-rule="evenodd">
        <g id="Contacts" transform="translate(-130.000000, -166.000000)" fill="#808A95" fill-rule="nonzero" stroke="#FFFFFF" stroke-width="2">
            <g id="Search" transform="translate(115.000000, 147.000000)">
                <path d="M25.4820018,20 C30.7497805,20 34.9640035,24.214223 34.9640035,29.4820018 C34.9640035,31.3362599 34.4372256,33.0851624 33.5100966,34.5390694 L40,41.071115 L37.071115,44 L30.4969271,37.5311677 C29.0430202,38.4372256 27.3151888,38.9640035 25.4820018,38.9640035 C20.214223,38.9640035 16,34.7497805 16,29.4820018 C16,24.214223 20.214223,20 25.4820018,20 Z M25.4820018,24.214223 C22.5726879,24.214223 20.214223,26.5726879 20.214223,29.4820018 C20.214223,32.3913156 22.5726879,34.7497805 25.4820018,34.7497805 C28.3913156,34.7497805 30.7497805,32.3913156 30.7497805,29.4820018 C30.7497805,26.5726879 28.3913156,24.214223 25.4820018,24.214223 Z" id="Shape"></path>
            </g>
        </g>
    </g>
</svg>