<svg width="154" height="151" viewBox="0 0 154 151" fill="none" xmlns="http://www.w3.org/2000/svg">
<path fill-rule="evenodd" clip-rule="evenodd" d="M46.1429 30.8571L71.8571 5.14286C74.6975 2.30254 79.3025 2.30254 82.1428 5.14286L107.857 30.8571C110.697 33.6975 110.697 38.3025 107.857 41.1429L82.1428 66.8571C79.3025 69.6975 74.6975 69.6975 71.8571 66.8571L46.1429 41.1429C43.3025 38.3025 43.3025 33.6975 46.1429 30.8571Z" fill="url(#paint0_linear)"/>
<g opacity="0.08">
<path opacity="0.08" d="M68.6723 47.2006C66.9462 47.2006 65.4867 46.9291 64.2939 46.386C63.1011 45.8429 62.2089 45.1593 61.6174 44.335C61.0258 43.5107 60.7107 42.6622 60.6719 41.7894C60.6719 41.6148 60.7301 41.4694 60.8465 41.353C60.9628 41.2366 61.1083 41.1785 61.2828 41.1785H63.9593C64.386 41.1785 64.677 41.3724 64.8321 41.7603C65.2588 43.1373 66.5389 43.8259 68.6723 43.8259C69.8554 43.8259 70.7815 43.5543 71.4506 43.0113C72.1198 42.4682 72.4543 41.6924 72.4543 40.6839C72.4543 39.6753 72.1489 38.9432 71.5379 38.4874C70.927 38.0316 70.03 37.8037 68.8469 37.8037H65.8503C65.6564 37.8037 65.4915 37.7359 65.3558 37.6001C65.22 37.4643 65.1521 37.2995 65.1521 37.1055V35.8545C65.1521 35.486 65.2782 35.1951 65.5303 34.9818L70.7088 29.9197H62.4174C62.2041 29.9197 62.0296 29.8518 61.8938 29.7161C61.758 29.5803 61.6901 29.4154 61.6901 29.2215V27.2723C61.6901 27.0589 61.758 26.8844 61.8938 26.7486C62.0296 26.6129 62.2041 26.545 62.4174 26.545H74.9272C75.1405 26.545 75.3151 26.6129 75.4508 26.7486C75.5866 26.8844 75.6545 27.0589 75.6545 27.2723V29.0469C75.6545 29.3766 75.5284 29.6482 75.2763 29.8615L70.2724 35.0109L70.6215 35.04C72.4834 35.1951 73.9623 35.7576 75.0581 36.7273C76.1539 37.6971 76.7018 39.0838 76.7018 40.8875C76.7018 42.1676 76.3576 43.2828 75.669 44.2332C74.9805 45.1835 74.0302 45.9156 72.818 46.4296C71.6058 46.9436 70.2239 47.2006 68.6723 47.2006ZM87.2623 47.2006C85.6332 47.2006 84.2028 46.8903 82.9712 46.2696C81.7396 45.649 80.7893 44.7956 80.1202 43.7095C79.451 42.6234 79.1165 41.4015 79.1165 40.0438C79.1165 38.3371 79.8729 36.4558 81.3857 34.3999L86.6805 27.1268C86.8357 26.9329 86.9811 26.7874 87.1169 26.6904C87.2526 26.5935 87.4466 26.545 87.6987 26.545H90.4625C90.6371 26.545 90.7777 26.608 90.8844 26.7341C90.991 26.8602 91.0444 27.0104 91.0444 27.185C91.0444 27.3208 91.0056 27.4468 90.928 27.5632L86.8551 33.178C87.1654 33.1005 87.5727 33.0617 88.0769 33.0617C89.3764 33.0811 90.574 33.3962 91.6698 34.0072C92.7657 34.6181 93.6384 35.4472 94.2882 36.4946C94.9379 37.5419 95.2628 38.7056 95.2628 39.9857C95.2628 41.3045 94.9379 42.5119 94.2882 43.6077C93.6384 44.7035 92.7075 45.5762 91.4953 46.226C90.2831 46.8757 88.8721 47.2006 87.2623 47.2006ZM87.2042 43.8259C88.2903 43.8259 89.2115 43.4913 89.9679 42.8222C90.7244 42.153 91.1025 41.2269 91.1025 40.0438C91.1025 38.8801 90.7292 37.9638 89.9825 37.2946C89.2358 36.6255 88.3097 36.2909 87.2042 36.2909C86.118 36.2909 85.2017 36.6255 84.4549 37.2946C83.7082 37.9638 83.3349 38.8801 83.3349 40.0438C83.3349 41.2269 83.7082 42.153 84.4549 42.8222C85.2017 43.4913 86.118 43.8259 87.2042 43.8259Z" fill="url(#paint1_linear)"/>
<path opacity="0.08" d="M68.6723 47.2006C66.9462 47.2006 65.4867 46.9291 64.2939 46.386C63.1011 45.8429 62.2089 45.1593 61.6174 44.335C61.0258 43.5107 60.7107 42.6622 60.6719 41.7894C60.6719 41.6148 60.7301 41.4694 60.8465 41.353C60.9628 41.2366 61.1083 41.1785 61.2828 41.1785H63.9593C64.386 41.1785 64.677 41.3724 64.8321 41.7603C65.2588 43.1373 66.5389 43.8259 68.6723 43.8259C69.8554 43.8259 70.7815 43.5543 71.4506 43.0113C72.1198 42.4682 72.4543 41.6924 72.4543 40.6839C72.4543 39.6753 72.1489 38.9432 71.5379 38.4874C70.927 38.0316 70.03 37.8037 68.8469 37.8037H65.8503C65.6564 37.8037 65.4915 37.7359 65.3558 37.6001C65.22 37.4643 65.1521 37.2995 65.1521 37.1055V35.8545C65.1521 35.486 65.2782 35.1951 65.5303 34.9818L70.7088 29.9197H62.4174C62.2041 29.9197 62.0296 29.8518 61.8938 29.7161C61.758 29.5803 61.6901 29.4154 61.6901 29.2215V27.2723C61.6901 27.0589 61.758 26.8844 61.8938 26.7486C62.0296 26.6129 62.2041 26.545 62.4174 26.545H74.9272C75.1405 26.545 75.3151 26.6129 75.4508 26.7486C75.5866 26.8844 75.6545 27.0589 75.6545 27.2723V29.0469C75.6545 29.3766 75.5284 29.6482 75.2763 29.8615L70.2724 35.0109L70.6215 35.04C72.4834 35.1951 73.9623 35.7576 75.0581 36.7273C76.1539 37.6971 76.7018 39.0838 76.7018 40.8875C76.7018 42.1676 76.3576 43.2828 75.669 44.2332C74.9805 45.1835 74.0302 45.9156 72.818 46.4296C71.6058 46.9436 70.2239 47.2006 68.6723 47.2006ZM87.2623 47.2006C85.6332 47.2006 84.2028 46.8903 82.9712 46.2696C81.7396 45.649 80.7893 44.7956 80.1202 43.7095C79.451 42.6234 79.1165 41.4015 79.1165 40.0438C79.1165 38.3371 79.8729 36.4558 81.3857 34.3999L86.6805 27.1268C86.8357 26.9329 86.9811 26.7874 87.1169 26.6904C87.2526 26.5935 87.4466 26.545 87.6987 26.545H90.4625C90.6371 26.545 90.7777 26.608 90.8844 26.7341C90.991 26.8602 91.0444 27.0104 91.0444 27.185C91.0444 27.3208 91.0056 27.4468 90.928 27.5632L86.8551 33.178C87.1654 33.1005 87.5727 33.0617 88.0769 33.0617C89.3764 33.0811 90.574 33.3962 91.6698 34.0072C92.7657 34.6181 93.6384 35.4472 94.2882 36.4946C94.9379 37.5419 95.2628 38.7056 95.2628 39.9857C95.2628 41.3045 94.9379 42.5119 94.2882 43.6077C93.6384 44.7035 92.7075 45.5762 91.4953 46.226C90.2831 46.8757 88.8721 47.2006 87.2623 47.2006ZM87.2042 43.8259C88.2903 43.8259 89.2115 43.4913 89.9679 42.8222C90.7244 42.153 91.1025 41.2269 91.1025 40.0438C91.1025 38.8801 90.7292 37.9638 89.9825 37.2946C89.2358 36.6255 88.3097 36.2909 87.2042 36.2909C86.118 36.2909 85.2017 36.6255 84.4549 37.2946C83.7082 37.9638 83.3349 38.8801 83.3349 40.0438C83.3349 41.2269 83.7082 42.153 84.4549 42.8222C85.2017 43.4913 86.118 43.8259 87.2042 43.8259Z" fill="white"/>
</g>
<path fill-rule="evenodd" clip-rule="evenodd" d="M87.1951 39.4475C87.3914 39.4475 87.5605 39.5129 87.7024 39.6438C87.8442 39.7748 87.9042 39.9384 87.8824 40.1348C87.8387 41.4221 87.4296 42.6058 86.655 43.6859C85.8805 44.7659 84.7622 45.6278 83.3003 46.2715C81.8384 46.9151 80.1256 47.2369 78.1619 47.2369C75.369 47.2369 73.1598 46.5769 71.5343 45.2569C69.9087 43.9368 68.9432 42.044 68.6378 39.5784H66.5104C66.2922 39.5784 66.1067 39.502 65.954 39.3493C65.8013 39.1965 65.7249 39.0111 65.7249 38.7929V36.8946C65.7249 36.6546 65.8013 36.4637 65.954 36.3219C66.1067 36.18 66.2922 36.1091 66.5104 36.1091H68.5396V34.8654H66.5104C66.2922 34.8654 66.1067 34.789 65.954 34.6363C65.8013 34.4836 65.7249 34.2981 65.7249 34.0799V32.1816C65.7249 31.9416 65.8013 31.7507 65.954 31.6089C66.1067 31.4671 66.2922 31.3962 66.5104 31.3962H68.6378C68.9214 28.9087 69.876 26.9996 71.5015 25.6686C73.1271 24.3376 75.3472 23.6721 78.1619 23.6721C80.1256 23.6721 81.8384 23.994 83.3003 24.6376C84.7622 25.2813 85.8805 26.1432 86.655 27.2232C87.4296 28.3033 87.8387 29.487 87.8824 30.7743V30.8398C87.8824 31.0143 87.8115 31.1616 87.6696 31.2816C87.5278 31.4016 87.3696 31.4616 87.1951 31.4616H84.0204C83.7585 31.4616 83.5512 31.4016 83.3985 31.2816C83.2458 31.1616 83.1258 30.9489 83.0385 30.6434C82.7112 29.5306 82.1439 28.7233 81.3366 28.2214C80.5293 27.7196 79.4711 27.4687 78.1619 27.4687C75.4563 27.4687 73.8853 28.7778 73.4489 31.3962H78.8492C79.0892 31.3962 79.2801 31.4671 79.422 31.6089C79.5638 31.7507 79.6347 31.9416 79.6347 32.1816V34.0799C79.6347 34.2981 79.5583 34.4836 79.4056 34.6363C79.2528 34.789 79.0674 34.8654 78.8492 34.8654H73.318V36.1091H78.8492C79.0892 36.1091 79.2801 36.18 79.422 36.3219C79.5638 36.4637 79.6347 36.6546 79.6347 36.8946V38.7929C79.6347 39.0111 79.5638 39.1965 79.422 39.3493C79.2801 39.502 79.0892 39.5784 78.8492 39.5784H73.4489C73.8853 42.1531 75.4563 43.4404 78.1619 43.4404C79.4711 43.4404 80.5293 43.1895 81.3366 42.6876C82.1439 42.1858 82.7112 41.3785 83.0385 40.2657C83.1258 39.9602 83.2458 39.7475 83.3985 39.6275C83.5512 39.5075 83.7585 39.4475 84.0204 39.4475H87.1951Z" fill="white"/>
<path fill-rule="evenodd" clip-rule="evenodd" d="M87.1429 70.8571L112.857 45.1428C115.697 42.3025 120.303 42.3025 123.143 45.1428L148.857 70.8571C151.697 73.6975 151.697 78.3025 148.857 81.1428L123.143 106.857C120.303 109.697 115.697 109.697 112.857 106.857L87.1429 81.1428C84.3025 78.3025 84.3025 73.6975 87.1429 70.8571Z" fill="url(#paint2_linear)"/>
<path opacity="0.08" d="M105.571 72.9772C104.633 72.9772 103.833 72.8279 103.171 72.5292C102.521 72.2306 102.03 71.8572 101.699 71.4092C101.379 70.9506 101.209 70.4812 101.187 70.0012C101.187 69.9052 101.219 69.8306 101.283 69.7772C101.358 69.7132 101.443 69.6812 101.539 69.6812H102.979C103.214 69.6812 103.369 69.7879 103.443 70.0012C103.678 70.7692 104.393 71.1532 105.587 71.1532C106.238 71.1532 106.75 71.0039 107.123 70.7052C107.497 70.3959 107.683 69.9586 107.683 69.3932C107.683 68.3266 107.017 67.7932 105.683 67.7932H104.035C103.918 67.7932 103.822 67.7559 103.747 67.6812C103.673 67.6066 103.635 67.5159 103.635 67.4092V66.7372C103.635 66.5666 103.71 66.4066 103.859 66.2572L106.723 63.4572H102.147C102.041 63.4572 101.95 63.4199 101.875 63.3452C101.801 63.2706 101.763 63.1799 101.763 63.0732V62.0172C101.763 61.8999 101.795 61.8039 101.859 61.7292C101.934 61.6546 102.03 61.6172 102.147 61.6172H109.011C109.129 61.6172 109.225 61.6546 109.299 61.7292C109.374 61.8039 109.411 61.8999 109.411 62.0172V62.9772C109.411 63.1372 109.342 63.2866 109.203 63.4252L106.435 66.2732L106.627 66.2892C107.651 66.3746 108.462 66.6839 109.059 67.2172C109.667 67.7506 109.971 68.5132 109.971 69.5052C109.971 70.2092 109.779 70.8226 109.395 71.3452C109.022 71.8679 108.499 72.2732 107.827 72.5612C107.166 72.8386 106.414 72.9772 105.571 72.9772ZM115.778 72.9772C114.882 72.9772 114.098 72.8066 113.426 72.4652C112.754 72.1239 112.236 71.6599 111.874 71.0732C111.511 70.4759 111.33 69.8039 111.33 69.0572C111.33 68.1079 111.74 67.0732 112.562 65.9532L115.49 61.9372C115.554 61.8412 115.623 61.7666 115.698 61.7132C115.783 61.6492 115.895 61.6172 116.034 61.6172H117.522C117.618 61.6172 117.698 61.6546 117.762 61.7292C117.826 61.7932 117.858 61.8732 117.858 61.9692C117.858 62.0226 117.831 62.0919 117.778 62.1772L115.538 65.2812C115.751 65.2279 115.98 65.2012 116.226 65.2012C116.94 65.2226 117.596 65.4039 118.194 65.7452C118.802 66.0759 119.282 66.5292 119.634 67.1052C119.996 67.6812 120.178 68.3212 120.178 69.0252C120.178 69.7399 119.996 70.4012 119.634 71.0092C119.282 71.6066 118.77 72.0866 118.098 72.4492C117.436 72.8012 116.663 72.9772 115.778 72.9772ZM115.762 71.1372C116.37 71.1372 116.882 70.9559 117.298 70.5932C117.714 70.2199 117.922 69.7026 117.922 69.0412C117.922 68.3906 117.714 67.8839 117.298 67.5212C116.882 67.1479 116.37 66.9612 115.762 66.9612C115.154 66.9612 114.642 67.1479 114.226 67.5212C113.81 67.8839 113.602 68.3906 113.602 69.0412C113.602 69.7026 113.81 70.2199 114.226 70.5932C114.642 70.9559 115.154 71.1372 115.762 71.1372Z" fill="white"/>
<path d="M122.398 82.4246H108.666C107.796 82.4246 107.09 83.1301 107.09 84.0004C107.09 84.8707 107.796 85.5763 108.666 85.5763H122.398C123.269 85.5763 123.974 84.8707 123.974 84.0004C123.974 83.1301 123.269 82.4246 122.398 82.4246Z" fill="white"/>
<path fill-rule="evenodd" clip-rule="evenodd" d="M111.388 88.7279C111.132 88.7279 110.915 88.6491 110.736 88.4915C110.557 88.334 110.467 88.1426 110.467 87.9175V65.9345C110.467 65.6869 110.55 65.4843 110.717 65.3267C110.883 65.1691 111.107 65.0903 111.388 65.0903H128.08C128.362 65.0903 128.592 65.1691 128.771 65.3267C128.95 65.4843 129.04 65.6869 129.04 65.9345V68.3658C129.04 68.591 128.95 68.7823 128.771 68.9399C128.592 69.0975 128.362 69.1763 128.08 69.1763H115.801V75.5246H127.313C127.594 75.5246 127.824 75.6034 128.003 75.761C128.183 75.9186 128.272 76.11 128.272 76.3351V78.7664C128.272 78.9915 128.183 79.1828 128.003 79.3404C127.824 79.498 127.594 79.5768 127.313 79.5768H115.801V87.9175C115.801 88.1426 115.711 88.334 115.532 88.4915C115.353 88.6491 115.123 88.7279 114.842 88.7279H111.388Z" fill="white"/>
<path fill-rule="evenodd" clip-rule="evenodd" d="M45.1429 109.857L70.8571 84.1429C73.6975 81.3025 78.3025 81.3025 81.1428 84.1429L106.857 109.857C109.697 112.697 109.697 117.303 106.857 120.143L81.1428 145.857C78.3025 148.697 73.6975 148.697 70.8571 145.857L45.1429 120.143C42.3025 117.303 42.3025 112.697 45.1429 109.857Z" fill="url(#paint3_linear)"/>
<g opacity="0.08">
<path opacity="0.08" d="M67.6723 126.201C65.9462 126.201 64.4867 125.929 63.2939 125.386C62.1011 124.843 61.2089 124.159 60.6174 123.335C60.0258 122.511 59.7107 121.662 59.6719 120.789C59.6719 120.615 59.7301 120.469 59.8465 120.353C59.9628 120.237 60.1083 120.178 60.2828 120.178H62.9593C63.386 120.178 63.677 120.372 63.8321 120.76C64.2588 122.137 65.5389 122.826 67.6723 122.826C68.8554 122.826 69.7815 122.554 70.4506 122.011C71.1198 121.468 71.4543 120.692 71.4543 119.684C71.4543 118.675 71.1489 117.943 70.5379 117.487C69.927 117.032 69.03 116.804 67.8469 116.804H64.8503C64.6564 116.804 64.4915 116.736 64.3558 116.6C64.22 116.464 64.1521 116.299 64.1521 116.106V114.855C64.1521 114.486 64.2782 114.195 64.5303 113.982L69.7088 108.92H61.4174C61.2041 108.92 61.0296 108.852 60.8938 108.716C60.758 108.58 60.6901 108.415 60.6901 108.221V106.272C60.6901 106.059 60.758 105.884 60.8938 105.749C61.0296 105.613 61.2041 105.545 61.4174 105.545H73.9272C74.1405 105.545 74.3151 105.613 74.4508 105.749C74.5866 105.884 74.6545 106.059 74.6545 106.272V108.047C74.6545 108.377 74.5284 108.648 74.2763 108.861L69.2724 114.011L69.6215 114.04C71.4834 114.195 72.9623 114.758 74.0581 115.727C75.1539 116.697 75.7018 118.084 75.7018 119.888C75.7018 121.168 75.3576 122.283 74.669 123.233C73.9805 124.184 73.0302 124.916 71.818 125.43C70.6058 125.944 69.2239 126.201 67.6723 126.201ZM86.2623 126.201C84.6332 126.201 83.2028 125.89 81.9712 125.27C80.7396 124.649 79.7893 123.796 79.1202 122.709C78.451 121.623 78.1165 120.401 78.1165 119.044C78.1165 117.337 78.8729 115.456 80.3857 113.4L85.6805 106.127C85.8357 105.933 85.9811 105.787 86.1169 105.69C86.2526 105.593 86.4466 105.545 86.6987 105.545H89.4625C89.6371 105.545 89.7777 105.608 89.8844 105.734C89.991 105.86 90.0444 106.01 90.0444 106.185C90.0444 106.321 90.0056 106.447 89.928 106.563L85.8551 112.178C86.1654 112.1 86.5727 112.062 87.0769 112.062C88.3764 112.081 89.574 112.396 90.6698 113.007C91.7657 113.618 92.6384 114.447 93.2882 115.495C93.9379 116.542 94.2628 117.706 94.2628 118.986C94.2628 120.305 93.9379 121.512 93.2882 122.608C92.6384 123.703 91.7075 124.576 90.4953 125.226C89.2831 125.876 87.8721 126.201 86.2623 126.201ZM86.2042 122.826C87.2903 122.826 88.2115 122.491 88.9679 121.822C89.7244 121.153 90.1025 120.227 90.1025 119.044C90.1025 117.88 89.7292 116.964 88.9825 116.295C88.2358 115.625 87.3097 115.291 86.2042 115.291C85.118 115.291 84.2017 115.625 83.4549 116.295C82.7082 116.964 82.3349 117.88 82.3349 119.044C82.3349 120.227 82.7082 121.153 83.4549 121.822C84.2017 122.491 85.118 122.826 86.2042 122.826Z" fill="url(#paint4_linear)"/>
<path opacity="0.08" d="M67.6723 126.201C65.9462 126.201 64.4867 125.929 63.2939 125.386C62.1011 124.843 61.2089 124.159 60.6174 123.335C60.0258 122.511 59.7107 121.662 59.6719 120.789C59.6719 120.615 59.7301 120.469 59.8465 120.353C59.9628 120.237 60.1083 120.178 60.2828 120.178H62.9593C63.386 120.178 63.677 120.372 63.8321 120.76C64.2588 122.137 65.5389 122.826 67.6723 122.826C68.8554 122.826 69.7815 122.554 70.4506 122.011C71.1198 121.468 71.4543 120.692 71.4543 119.684C71.4543 118.675 71.1489 117.943 70.5379 117.487C69.927 117.032 69.03 116.804 67.8469 116.804H64.8503C64.6564 116.804 64.4915 116.736 64.3558 116.6C64.22 116.464 64.1521 116.299 64.1521 116.106V114.855C64.1521 114.486 64.2782 114.195 64.5303 113.982L69.7088 108.92H61.4174C61.2041 108.92 61.0296 108.852 60.8938 108.716C60.758 108.58 60.6901 108.415 60.6901 108.221V106.272C60.6901 106.059 60.758 105.884 60.8938 105.749C61.0296 105.613 61.2041 105.545 61.4174 105.545H73.9272C74.1405 105.545 74.3151 105.613 74.4508 105.749C74.5866 105.884 74.6545 106.059 74.6545 106.272V108.047C74.6545 108.377 74.5284 108.648 74.2763 108.861L69.2724 114.011L69.6215 114.04C71.4834 114.195 72.9623 114.758 74.0581 115.727C75.1539 116.697 75.7018 118.084 75.7018 119.888C75.7018 121.168 75.3576 122.283 74.669 123.233C73.9805 124.184 73.0302 124.916 71.818 125.43C70.6058 125.944 69.2239 126.201 67.6723 126.201ZM86.2623 126.201C84.6332 126.201 83.2028 125.89 81.9712 125.27C80.7396 124.649 79.7893 123.796 79.1202 122.709C78.451 121.623 78.1165 120.401 78.1165 119.044C78.1165 117.337 78.8729 115.456 80.3857 113.4L85.6805 106.127C85.8357 105.933 85.9811 105.787 86.1169 105.69C86.2526 105.593 86.4466 105.545 86.6987 105.545H89.4625C89.6371 105.545 89.7777 105.608 89.8844 105.734C89.991 105.86 90.0444 106.01 90.0444 106.185C90.0444 106.321 90.0056 106.447 89.928 106.563L85.8551 112.178C86.1654 112.1 86.5727 112.062 87.0769 112.062C88.3764 112.081 89.574 112.396 90.6698 113.007C91.7657 113.618 92.6384 114.447 93.2882 115.495C93.9379 116.542 94.2628 117.706 94.2628 118.986C94.2628 120.305 93.9379 121.512 93.2882 122.608C92.6384 123.703 91.7075 124.576 90.4953 125.226C89.2831 125.876 87.8721 126.201 86.2623 126.201ZM86.2042 122.826C87.2903 122.826 88.2115 122.491 88.9679 121.822C89.7244 121.153 90.1025 120.227 90.1025 119.044C90.1025 117.88 89.7292 116.964 88.9825 116.295C88.2358 115.625 87.3097 115.291 86.2042 115.291C85.118 115.291 84.2017 115.625 83.4549 116.295C82.7082 116.964 82.3349 117.88 82.3349 119.044C82.3349 120.227 82.7082 121.153 83.4549 121.822C84.2017 122.491 85.118 122.826 86.2042 122.826Z" fill="white"/>
</g>
<path fill-rule="evenodd" clip-rule="evenodd" d="M86.1951 118.447C86.3914 118.447 86.5605 118.513 86.7024 118.644C86.8442 118.775 86.9042 118.938 86.8824 119.135C86.8387 120.422 86.4296 121.606 85.655 122.686C84.8805 123.766 83.7622 124.628 82.3003 125.271C80.8384 125.915 79.1256 126.237 77.1619 126.237C74.369 126.237 72.1598 125.577 70.5343 124.257C68.9087 122.937 67.9432 121.044 67.6378 118.578H65.5104C65.2922 118.578 65.1067 118.502 64.954 118.349C64.8013 118.197 64.7249 118.011 64.7249 117.793V115.895C64.7249 115.655 64.8013 115.464 64.954 115.322C65.1067 115.18 65.2922 115.109 65.5104 115.109H67.5396V113.865H65.5104C65.2922 113.865 65.1067 113.789 64.954 113.636C64.8013 113.484 64.7249 113.298 64.7249 113.08V111.182C64.7249 110.942 64.8013 110.751 64.954 110.609C65.1067 110.467 65.2922 110.396 65.5104 110.396H67.6378C67.9214 107.909 68.876 106 70.5015 104.669C72.1271 103.338 74.3472 102.672 77.1619 102.672C79.1256 102.672 80.8384 102.994 82.3003 103.638C83.7622 104.281 84.8805 105.143 85.655 106.223C86.4296 107.303 86.8387 108.487 86.8824 109.774V109.84C86.8824 110.014 86.8115 110.162 86.6696 110.282C86.5278 110.402 86.3696 110.462 86.1951 110.462H83.0204C82.7585 110.462 82.5512 110.402 82.3985 110.282C82.2458 110.162 82.1258 109.949 82.0385 109.643C81.7112 108.531 81.1439 107.723 80.3366 107.221C79.5293 106.72 78.4711 106.469 77.1619 106.469C74.4563 106.469 72.8853 107.778 72.4489 110.396H77.8492C78.0892 110.396 78.2801 110.467 78.422 110.609C78.5638 110.751 78.6347 110.942 78.6347 111.182V113.08C78.6347 113.298 78.5583 113.484 78.4056 113.636C78.2528 113.789 78.0674 113.865 77.8492 113.865H72.318V115.109H77.8492C78.0892 115.109 78.2801 115.18 78.422 115.322C78.5638 115.464 78.6347 115.655 78.6347 115.895V117.793C78.6347 118.011 78.5638 118.197 78.422 118.349C78.2801 118.502 78.0892 118.578 77.8492 118.578H72.4489C72.8853 121.153 74.4563 122.44 77.1619 122.44C78.4711 122.44 79.5293 122.189 80.3366 121.688C81.1439 121.186 81.7112 120.378 82.0385 119.266C82.1258 118.96 82.2458 118.747 82.3985 118.627C82.5512 118.507 82.7585 118.447 83.0204 118.447H86.1951Z" fill="white"/>
<path fill-rule="evenodd" clip-rule="evenodd" d="M5.14286 69.8571L30.8571 44.1428C33.6975 41.3025 38.3025 41.3025 41.1429 44.1428L66.8571 69.8571C69.6975 72.6975 69.6975 77.3025 66.8571 80.1428L41.1429 105.857C38.3025 108.697 33.6975 108.697 30.8571 105.857L5.14286 80.1428C2.30254 77.3025 2.30254 72.6975 5.14286 69.8571Z" fill="url(#paint5_linear)"/>
<path opacity="0.08" d="M23.5715 71.9772C22.6328 71.9772 21.8328 71.8279 21.1715 71.5292C20.5208 71.2306 20.0301 70.8572 19.6995 70.4092C19.3795 69.9506 19.2088 69.4812 19.1875 69.0012C19.1875 68.9052 19.2195 68.8306 19.2835 68.7772C19.3581 68.7132 19.4435 68.6812 19.5395 68.6812H20.9795C21.2141 68.6812 21.3688 68.7879 21.4435 69.0012C21.6781 69.7692 22.3928 70.1532 23.5875 70.1532C24.2381 70.1532 24.7501 70.0039 25.1235 69.7052C25.4968 69.3959 25.6835 68.9586 25.6835 68.3932C25.6835 67.3266 25.0168 66.7932 23.6835 66.7932H22.0355C21.9181 66.7932 21.8221 66.7559 21.7475 66.6812C21.6728 66.6066 21.6355 66.5159 21.6355 66.4092V65.7372C21.6355 65.5666 21.7101 65.4066 21.8595 65.2572L24.7235 62.4572H20.1475C20.0408 62.4572 19.9501 62.4199 19.8755 62.3452C19.8008 62.2706 19.7635 62.1799 19.7635 62.0732V61.0172C19.7635 60.8999 19.7955 60.8039 19.8595 60.7292C19.9341 60.6546 20.0301 60.6172 20.1475 60.6172H27.0115C27.1288 60.6172 27.2248 60.6546 27.2995 60.7292C27.3741 60.8039 27.4115 60.8999 27.4115 61.0172V61.9772C27.4115 62.1372 27.3421 62.2866 27.2035 62.4252L24.4355 65.2732L24.6275 65.2892C25.6515 65.3746 26.4621 65.6839 27.0595 66.2172C27.6675 66.7506 27.9715 67.5132 27.9715 68.5052C27.9715 69.2092 27.7795 69.8226 27.3955 70.3452C27.0221 70.8679 26.4995 71.2732 25.8275 71.5612C25.1661 71.8386 24.4141 71.9772 23.5715 71.9772ZM33.7776 71.9772C32.8816 71.9772 32.0976 71.8066 31.4256 71.4652C30.7536 71.1239 30.2363 70.6599 29.8736 70.0732C29.5109 69.4759 29.3296 68.8039 29.3296 68.0572C29.3296 67.1079 29.7403 66.0732 30.5616 64.9532L33.4896 60.9372C33.5536 60.8412 33.6229 60.7666 33.6976 60.7132C33.7829 60.6492 33.8949 60.6172 34.0336 60.6172H35.5216C35.6176 60.6172 35.6976 60.6546 35.7616 60.7292C35.8256 60.7932 35.8576 60.8732 35.8576 60.9692C35.8576 61.0226 35.8309 61.0919 35.7776 61.1772L33.5376 64.2812C33.7509 64.2279 33.9803 64.2012 34.2256 64.2012C34.9403 64.2226 35.5963 64.4039 36.1936 64.7452C36.8016 65.0759 37.2816 65.5292 37.6336 66.1052C37.9963 66.6812 38.1776 67.3212 38.1776 68.0252C38.1776 68.7399 37.9963 69.4012 37.6336 70.0092C37.2816 70.6066 36.7696 71.0866 36.0976 71.4492C35.4363 71.8012 34.6629 71.9772 33.7776 71.9772ZM33.7616 70.1372C34.3696 70.1372 34.8816 69.9559 35.2976 69.5932C35.7136 69.2199 35.9216 68.7026 35.9216 68.0412C35.9216 67.3906 35.7136 66.8839 35.2976 66.5212C34.8816 66.1479 34.3696 65.9612 33.7616 65.9612C33.1536 65.9612 32.6416 66.1479 32.2256 66.5212C31.8096 66.8839 31.6016 67.3906 31.6016 68.0412C31.6016 68.7026 31.8096 69.2199 32.2256 69.5932C32.6416 69.9559 33.1536 70.1372 33.7616 70.1372Z" fill="white"/>
<path d="M40.3985 81.4246H26.6662C25.7959 81.4246 25.0904 82.1301 25.0904 83.0004C25.0904 83.8707 25.7959 84.5763 26.6662 84.5763H40.3985C41.2688 84.5763 41.9743 83.8707 41.9743 83.0004C41.9743 82.1301 41.2688 81.4246 40.3985 81.4246Z" fill="white"/>
<path fill-rule="evenodd" clip-rule="evenodd" d="M29.3881 87.7279C29.1323 87.7279 28.9148 87.6491 28.7357 87.4915C28.5567 87.334 28.4671 87.1426 28.4671 86.9175V64.9345C28.4671 64.6869 28.5503 64.4843 28.7166 64.3267C28.8828 64.1691 29.1067 64.0903 29.3881 64.0903H46.0802C46.3616 64.0903 46.5918 64.1691 46.7709 64.3267C46.95 64.4843 47.0395 64.6869 47.0395 64.9345V67.3658C47.0395 67.591 46.95 67.7823 46.7709 67.9399C46.5918 68.0975 46.3616 68.1763 46.0802 68.1763H33.8009V74.5246H45.3127C45.5941 74.5246 45.8244 74.6034 46.0035 74.761C46.1825 74.9186 46.2721 75.11 46.2721 75.3351V77.7664C46.2721 77.9915 46.1825 78.1828 46.0035 78.3404C45.8244 78.498 45.5941 78.5768 45.3127 78.5768H33.8009V86.9175C33.8009 87.1426 33.7114 87.334 33.5323 87.4915C33.3533 87.6491 33.123 87.7279 32.8416 87.7279H29.3881Z" fill="white"/>
<defs>
<linearGradient id="paint0_linear" x1="59" y1="18" x2="95" y2="54" gradientUnits="userSpaceOnUse">
<stop stop-color="#017EE5"/>
<stop offset="1" stop-color="#69B8F2"/>
</linearGradient>
<linearGradient id="paint1_linear" x1="77.9673" y1="26.545" x2="77.9673" y2="47.2006" gradientUnits="userSpaceOnUse">
<stop stop-color="#017EE5"/>
<stop offset="1" stop-color="#69B8F2"/>
</linearGradient>
<linearGradient id="paint2_linear" x1="100" y1="58" x2="136" y2="94" gradientUnits="userSpaceOnUse">
<stop stop-color="#017EE5"/>
<stop offset="1" stop-color="#69B8F2"/>
</linearGradient>
<linearGradient id="paint3_linear" x1="58" y1="97" x2="94" y2="133" gradientUnits="userSpaceOnUse">
<stop stop-color="#017EE5"/>
<stop offset="1" stop-color="#69B8F2"/>
</linearGradient>
<linearGradient id="paint4_linear" x1="76.9673" y1="105.545" x2="76.9673" y2="126.201" gradientUnits="userSpaceOnUse">
<stop stop-color="#017EE5"/>
<stop offset="1" stop-color="#69B8F2"/>
</linearGradient>
<linearGradient id="paint5_linear" x1="18" y1="57" x2="54" y2="93" gradientUnits="userSpaceOnUse">
<stop stop-color="#017EE5"/>
<stop offset="1" stop-color="#69B8F2"/>
</linearGradient>
</defs>
</svg>
