<?xml version="1.0" encoding="UTF-8"?>
<svg width="110px" height="110px" viewBox="0 0 110 110" version="1.1" xmlns="http://www.w3.org/2000/svg" xmlns:xlink="http://www.w3.org/1999/xlink">
    <!-- Generator: sketchtool 52.2 (67145) - http://www.bohemiancoding.com/sketch -->
    <title>02907308-20C2-4CEF-94A6-849738FCFF89</title>
    <desc>Created with sketchtool.</desc>
    <defs>
        <linearGradient x1="156.37862%" y1="-35.9375%" x2="0%" y2="115.334302%" id="linearGradient-1">
            <stop stop-color="#48D6B6" offset="0%"></stop>
            <stop stop-color="#32B396" offset="100%"></stop>
        </linearGradient>
        <polygon id="path-2" points="81.25 38.6687143 44.9071429 75.0115714 28.25 58.3544286 32.5202857 54.0841429 44.9071429 66.4407143 76.9797143 34.3984286"></polygon>
        <filter x="-23.0%" y="-17.7%" width="146.1%" height="160.1%" filterUnits="objectBoundingBox" id="filter-3">
            <feMorphology radius="0.5" operator="dilate" in="SourceAlpha" result="shadowSpreadOuter1"></feMorphology>
            <feOffset dx="0" dy="5" in="shadowSpreadOuter1" result="shadowOffsetOuter1"></feOffset>
            <feGaussianBlur stdDeviation="3" in="shadowOffsetOuter1" result="shadowBlurOuter1"></feGaussianBlur>
            <feComposite in="shadowBlurOuter1" in2="SourceAlpha" operator="out" result="shadowBlurOuter1"></feComposite>
            <feColorMatrix values="0 0 0 0 0   0 0 0 0 0   0 0 0 0 0  0 0 0 0.05 0" type="matrix" in="shadowBlurOuter1"></feColorMatrix>
        </filter>
    </defs>
    <g id="Web-App---Desktop" stroke="none" stroke-width="1" fill="none" fill-rule="evenodd">
        <g id="Sell-Tokens---Step-3" transform="translate(-645.000000, -271.000000)">
            <g id="Content" transform="translate(413.000000, 271.000000)">
                <g id="Confirmation-Icon" transform="translate(232.000000, 0.000000)">
                    <path d="M55,0 L55,0 C85.3756612,-5.57991845e-15 110,24.6243388 110,55 L110,55 C110,85.3756612 85.3756612,110 55,110 L55,110 C24.6243388,110 3.71994563e-15,85.3756612 0,55 L0,55 C-3.71994563e-15,24.6243388 24.6243388,5.57991845e-15 55,0 Z" id="confirmation-icon-container" fill="url(#linearGradient-1)"></path>
                    <g id="check-icon" fill-rule="nonzero">
                        <use fill="black" fill-opacity="1" filter="url(#filter-3)" xlink:href="#path-2"></use>
                        <path stroke="#FFFFFF" stroke-width="0.5" d="M44.9070101,66.0874604 L76.9797978,34.0449587 L81.6035534,38.6687143 L44.9071429,75.3651248 L27.8964466,58.3544286 L32.5200695,53.7308057 L44.9070101,66.0874604 Z" fill="#FFFFFF" fill-rule="evenodd"></path>
                    </g>
                </g>
            </g>
        </g>
    </g>
</svg>