<?xml version="1.0" encoding="UTF-8"?>
<svg width="94px" height="99px" viewBox="0 0 94 99" version="1.1" xmlns="http://www.w3.org/2000/svg" xmlns:xlink="http://www.w3.org/1999/xlink">
    <!-- Generator: sketchtool 52.2 (67145) - http://www.bohemiancoding.com/sketch -->
    <title>2E898AEF-284A-4A86-9A54-478964666AE7</title>
    <desc>Created with sketchtool.</desc>
    <defs>
        <linearGradient x1="143.751084%" y1="-43.4378773%" x2="-9.47100473%" y2="110.689304%" id="linearGradient-1">
            <stop stop-color="#69B4EF" offset="0%"></stop>
            <stop stop-color="#623479" offset="100%"></stop>
        </linearGradient>
    </defs>
    <g id="Web-App---Desktop" stroke="none" stroke-width="1" fill="none" fill-rule="evenodd" opacity="0.05">
        <g id="Home---Tier-0-User" transform="translate(-296.000000, -315.000000)" fill="url(#linearGradient-1)">
            <g id="Top" transform="translate(0.000000, -2.000000)">
                <g id="Balances" transform="translate(115.000000, 317.000000)">
                    <g id="Balance-1">
                        <path d="M273.527825,69.7500658 C274.116584,70.2935361 274.365671,70.9728638 274.275093,71.7880692 C274.093936,77.1321936 272.395617,82.0459969 269.180084,86.5296267 C265.964552,91.0132565 261.32248,94.5910488 255.253728,97.263111 C249.184977,99.9351731 242.074681,101.271184 233.922627,101.271184 C222.328594,101.271184 213.157671,98.5312293 206.409582,93.0512374 C199.661492,87.5712454 195.653459,79.7136889 194.385362,69.4783321 L185.554014,69.4783321 C184.64823,69.4783321 183.878326,69.1613125 183.244277,68.5272638 C182.610228,67.8932152 182.293209,67.1233105 182.293209,66.2175267 L182.293209,58.3372471 C182.293209,57.340885 182.610228,56.548336 183.244277,55.9595766 C183.878326,55.3708171 184.64823,55.0764418 185.554014,55.0764418 L193.977761,55.0764418 L193.977761,49.9135 L185.554014,49.9135 C184.64823,49.9135 183.878326,49.5964804 183.244277,48.9624318 C182.610228,48.3283831 182.293209,47.5584784 182.293209,46.6526946 L182.293209,38.7724151 C182.293209,37.7760529 182.610228,36.983504 183.244277,36.3947445 C183.878326,35.805985 184.64823,35.5116097 185.554014,35.5116097 L194.385362,35.5116097 C195.562881,25.1856745 199.525625,17.2601852 206.273715,11.7349041 C213.021804,6.20962293 222.238016,3.44702381 233.922627,3.44702381 C242.074681,3.44702381 249.184977,4.78303486 255.253728,7.45509704 C261.32248,10.1271592 265.964552,13.7049515 269.180084,18.1885813 C272.395617,22.6722111 274.093936,27.5860144 274.275093,32.9301388 L274.275093,33.2018726 C274.275093,33.9264996 273.980717,34.5378945 273.391958,35.0360756 C272.803199,35.5342567 272.146515,35.7833435 271.421888,35.7833435 L258.2428,35.7833435 C257.155859,35.7833435 256.295378,35.5342567 255.661329,35.0360756 C255.02728,34.5378945 254.529107,33.6547686 254.166793,32.3866713 C252.808117,27.7671739 250.453115,24.4158242 247.101715,22.3325214 C243.750315,20.2492187 239.357329,19.207583 233.922627,19.207583 C222.690908,19.207583 216.169362,24.6422042 214.357795,35.5116097 L236.775831,35.5116097 C237.772194,35.5116097 238.564742,35.805985 239.153502,36.3947445 C239.742261,36.983504 240.036637,37.7760529 240.036637,38.7724151 L240.036637,46.6526946 C240.036637,47.5584784 239.719617,48.3283831 239.085568,48.9624318 C238.45152,49.5964804 237.681615,49.9135 236.775831,49.9135 L213.814327,49.9135 L213.814327,55.0764418 L236.775831,55.0764418 C237.772194,55.0764418 238.564742,55.3708171 239.153502,55.9595766 C239.742261,56.548336 240.036637,57.340885 240.036637,58.3372471 L240.036637,66.2175267 C240.036637,67.1233105 239.742261,67.8932152 239.153502,68.5272638 C238.564742,69.1613125 237.772194,69.4783321 236.775831,69.4783321 L214.357795,69.4783321 C216.169362,80.1665808 222.690908,85.510625 233.922627,85.510625 C239.357329,85.510625 243.750315,84.4689893 247.101715,82.3856866 C250.453115,80.3023838 252.808117,76.9510341 254.166793,72.3315367 C254.529107,71.0634394 255.02728,70.1803135 255.661329,69.6821324 C256.295378,69.1839513 257.155859,68.9348645 258.2428,68.9348645 L271.421888,68.9348645 C272.237094,68.9348645 272.939065,69.2065956 273.527825,69.7500658 Z" id="€-" transform="translate(228.293209, 52.359104) rotate(-30.000000) translate(-228.293209, -52.359104) "></path>
                    </g>
                </g>
            </g>
        </g>
    </g>
</svg>