<?xml version="1.0" encoding="UTF-8"?>
<svg width="38px" height="38px" viewBox="0 0 38 38" version="1.1" xmlns="http://www.w3.org/2000/svg" xmlns:xlink="http://www.w3.org/1999/xlink">
    <!-- Generator: sketchtool 52.2 (67145) - http://www.bohemiancoding.com/sketch -->
    <title>F05A6774-2DDD-4BE2-A98B-6F5866447207</title>
    <desc>Created with sketchtool.</desc>
    <defs>
        <linearGradient x1="143.751084%" y1="-43.4378773%" x2="-9.47100473%" y2="110.689304%" id="linearGradient-1">
            <stop stop-color="#69B4EF" offset="0%"></stop>
            <stop stop-color="#623479" offset="100%"></stop>
        </linearGradient>
        <path d="M226.42,141.16 C225.470662,141.16 224.668003,141.010668 224.012,140.712 C223.355997,140.413332 222.865335,140.037336 222.54,139.584 C222.214665,139.130664 222.041333,138.664002 222.02,138.184 C222.02,138.088 222.052,138.008 222.116,137.944 C222.18,137.88 222.26,137.848 222.356,137.848 L223.828,137.848 C224.062668,137.848 224.222666,137.954666 224.308,138.168 C224.542668,138.925337 225.246661,139.304 226.42,139.304 C227.07067,139.304 227.579998,139.154668 227.948,138.856 C228.316002,138.557332 228.5,138.130669 228.5,137.576 C228.5,137.021331 228.332002,136.618668 227.996,136.368 C227.659998,136.117332 227.16667,135.992 226.516,135.992 L224.868,135.992 C224.761333,135.992 224.670667,135.954667 224.596,135.88 C224.521333,135.805333 224.484,135.714667 224.484,135.608 L224.484,134.92 C224.484,134.717332 224.553333,134.557334 224.692,134.44 L227.54,131.656 L222.98,131.656 C222.862666,131.656 222.766667,131.618667 222.692,131.544 C222.617333,131.469333 222.58,131.378667 222.58,131.272 L222.58,130.2 C222.58,130.082666 222.617333,129.986667 222.692,129.912 C222.766667,129.837333 222.862666,129.8 222.98,129.8 L229.86,129.8 C229.977334,129.8 230.073333,129.837333 230.148,129.912 C230.222667,129.986667 230.26,130.082666 230.26,130.2 L230.26,131.176 C230.26,131.357334 230.190667,131.506666 230.052,131.624 L227.3,134.456 L227.492,134.472 C228.516005,134.557334 229.32933,134.866664 229.932,135.4 C230.53467,135.933336 230.836,136.695995 230.836,137.688 C230.836,138.392004 230.646669,139.005331 230.268,139.528 C229.889331,140.050669 229.36667,140.453332 228.7,140.736 C228.03333,141.018668 227.273338,141.16 226.42,141.16 Z M236.644,141.16 C235.747996,141.16 234.961337,140.989335 234.284,140.648 C233.606663,140.306665 233.084002,139.837336 232.716,139.24 C232.347998,138.642664 232.164,137.97067 232.164,137.224 C232.164,136.285329 232.579996,135.250672 233.412,134.12 L236.324,130.12 C236.409334,130.013333 236.489333,129.933334 236.564,129.88 C236.638667,129.826666 236.745333,129.8 236.884,129.8 L238.404,129.8 C238.5,129.8 238.577333,129.834666 238.636,129.904 C238.694667,129.973334 238.724,130.056 238.724,130.152 C238.724,130.226667 238.702667,130.296 238.66,130.36 L236.42,133.448 C236.590668,133.405333 236.814665,133.384 237.092,133.384 C237.80667,133.394667 238.46533,133.567998 239.068,133.904 C239.67067,134.240002 240.150665,134.695997 240.508,135.272 C240.865335,135.848003 241.044,136.487996 241.044,137.192 C241.044,137.917337 240.865335,138.58133 240.508,139.184 C240.150665,139.78667 239.63867,140.266665 238.972,140.624 C238.30533,140.981335 237.529338,141.16 236.644,141.16 Z M236.612,139.304 C237.209336,139.304 237.715998,139.120002 238.132,138.752 C238.548002,138.383998 238.756,137.87467 238.756,137.224 C238.756,136.583997 238.550669,136.080002 238.14,135.712 C237.729331,135.343998 237.220003,135.16 236.612,135.16 C236.014664,135.16 235.510669,135.343998 235.1,135.712 C234.689331,136.080002 234.484,136.583997 234.484,137.224 C234.484,137.87467 234.689331,138.383998 235.1,138.752 C235.510669,139.120002 236.014664,139.304 236.612,139.304 Z" id="path-2"></path>
    </defs>
    <g id="Web-App---Desktop" stroke="none" stroke-width="1" fill="none" fill-rule="evenodd">
        <g id="Home---Tier-0-User" transform="translate(-132.000000, -365.000000)">
            <g id="Top" transform="translate(0.000000, -2.000000)">
                <g id="Balances" transform="translate(115.000000, 317.000000)">
                    <g id="Balance-1">
                        <g id="Icon" transform="translate(-195.000000, -66.000000)">
                            <path d="M221,121 L241,121 C243.209139,121 245,122.790861 245,125 L245,145 C245,147.209139 243.209139,149 241,149 L221,149 C218.790861,149 217,147.209139 217,145 L217,125 C217,122.790861 218.790861,121 221,121 Z" id="Container" fill="url(#linearGradient-1)" transform="translate(231.000000, 135.000000) rotate(-45.000000) translate(-231.000000, -135.000000) "></path>
                            <g id="36" opacity="0.08">
                                <use fill="#017EE5" xlink:href="#path-2"></use>
                                <use fill="#FFFFFF" xlink:href="#path-2"></use>
                            </g>
                            <path d="M236.607,136.896 C236.715001,136.896 236.808,136.932 236.886,137.004 C236.964,137.076 236.997,137.165999 236.985,137.274 C236.961,137.982004 236.736002,138.632997 236.31,139.227 C235.883998,139.821003 235.269004,140.294998 234.465,140.649 C233.660996,141.003002 232.719005,141.18 231.639,141.18 C230.102992,141.18 228.888004,140.817004 227.994,140.091 C227.099996,139.364996 226.569001,138.324007 226.401,136.968 L225.231,136.968 C225.110999,136.968 225.009,136.926 224.925,136.842 C224.841,136.758 224.799,136.656001 224.799,136.536 L224.799,135.492 C224.799,135.359999 224.841,135.255 224.925,135.177 C225.009,135.099 225.110999,135.06 225.231,135.06 L226.347,135.06 L226.347,134.376 L225.231,134.376 C225.110999,134.376 225.009,134.334 224.925,134.25 C224.841,134.166 224.799,134.064001 224.799,133.944 L224.799,132.9 C224.799,132.767999 224.841,132.663 224.925,132.585 C225.009,132.507 225.110999,132.468 225.231,132.468 L226.401,132.468 C226.557001,131.099993 227.081996,130.050004 227.976,129.318 C228.870004,128.585996 230.090992,128.22 231.639,128.22 C232.719005,128.22 233.660996,128.396998 234.465,128.751 C235.269004,129.105002 235.883998,129.578997 236.31,130.173 C236.736002,130.767003 236.961,131.417996 236.985,132.126 L236.985,132.162 C236.985,132.258 236.946,132.339 236.868,132.405 C236.79,132.471 236.703,132.504 236.607,132.504 L234.861,132.504 C234.716999,132.504 234.603,132.471 234.519,132.405 C234.435,132.339 234.369,132.222001 234.321,132.054 C234.140999,131.441997 233.829002,130.998001 233.385,130.722 C232.940998,130.445999 232.359004,130.308 231.639,130.308 C230.150993,130.308 229.287001,131.027993 229.047,132.468 L232.017,132.468 C232.149001,132.468 232.254,132.507 232.332,132.585 C232.41,132.663 232.449,132.767999 232.449,132.9 L232.449,133.944 C232.449,134.064001 232.407,134.166 232.323,134.25 C232.239,134.334 232.137001,134.376 232.017,134.376 L228.975,134.376 L228.975,135.06 L232.017,135.06 C232.149001,135.06 232.254,135.099 232.332,135.177 C232.41,135.255 232.449,135.359999 232.449,135.492 L232.449,136.536 C232.449,136.656001 232.41,136.758 232.332,136.842 C232.254,136.926 232.149001,136.968 232.017,136.968 L229.047,136.968 C229.287001,138.384007 230.150993,139.092 231.639,139.092 C232.359004,139.092 232.940998,138.954001 233.385,138.678 C233.829002,138.401999 234.140999,137.958003 234.321,137.346 C234.369,137.177999 234.435,137.061 234.519,136.995 C234.603,136.929 234.716999,136.896 234.861,136.896 L236.607,136.896 Z" id="€" fill="#FFFFFF"></path>
                        </g>
                    </g>
                </g>
            </g>
        </g>
    </g>
</svg>