<?xml version="1.0" encoding="UTF-8"?>
<svg width="282px" height="402px" viewBox="0 0 282 402" version="1.1" xmlns="http://www.w3.org/2000/svg" xmlns:xlink="http://www.w3.org/1999/xlink">
    <!-- Generator: sketchtool 52.2 (67145) - http://www.bohemiancoding.com/sketch -->
    <title>6D7B52FE-4EDB-4AC8-9BD6-B36B497B4152</title>
    <desc>Created with sketchtool.</desc>
    <defs>
        <linearGradient x1="63.8375539%" y1="31.9058287%" x2="0%" y2="115.334302%" id="linearGradient-1">
            <stop stop-color="#63B4F5" offset="0%"></stop>
            <stop stop-color="#017EE5" offset="100%"></stop>
        </linearGradient>
    </defs>
    <g id="Web-App---Desktop" stroke="none" stroke-width="1" fill="none" fill-rule="evenodd">
        <g id="Login" transform="translate(-848.000000, -249.000000)">
            <g id="Right" transform="translate(601.000000, 24.000000)">
                <g id="Image">
                    <g id="Logo-BG" transform="translate(247.000000, 225.000000)">
                        <path d="M18,0 L264,0 C273.941125,-1.82615513e-15 282,8.0588745 282,18 L282,384 C282,393.941125 273.941125,402 264,402 L18,402 C8.0588745,402 1.21743675e-15,393.941125 0,384 L0,18 C-1.21743675e-15,8.0588745 8.0588745,1.82615513e-15 18,0 Z" id="Container" fill-opacity="0.8" fill="url(#linearGradient-1)"></path>
                        <text id="Cash" font-family="Rubik-Medium, Rubik" font-size="64" font-weight="400" fill="#FFFFFF">
                            <tspan x="32" y="354">Cash</tspan>
                        </text>
                        <path d="M135.473684,105.263158 C130.933018,103.594751 127.652254,101.05838 125.368421,97.6842105 C123.30161,94.9422135 122.142644,91.7942341 122,88.4210526 C122,87.9086699 122.213963,87.3690162 122.842105,86.7368421 C123.069827,86.5055575 123.604735,86.2896961 124.526316,85.8947368 L133.789474,85.8947368 C135.65811,86.2896961 136.727924,87.0092342 137.157895,88.4210526 C138.867585,93.5571296 143.574769,96.11149 151.473684,96 C155.770837,96.11149 159.176413,95.1041366 161.578947,93.4736842 C164.097634,91.0746625 165.327921,88.1965099 164.947368,84.2105263 C165.327921,80.713201 164.204615,77.9969445 161.578947,76.6315789 C159.711327,74.6150644 156.412732,73.7696071 152.315789,74.1052632 L141.368421,74.1052632 C140.329668,73.7696071 139.72344,73.5177688 138.842105,73.2631579 C138.724931,72.5104002 138.475308,71.8987928 138.842105,71.5789474 L138.842105,66.5263158 C138.475308,65.1710334 138.938894,64.0917262 139.684211,63.1578947 L159.052632,44.6315789 L128.736842,44.6315789 C127.634409,44.520089 126.99252,44.2682506 126.210526,43.7894737 C125.994012,43.2608821 125.744388,42.6492747 125.368421,42.1052632 L125.368421,34.5263158 C125.744388,33.9067912 125.994012,33.2592069 126.210526,32.8421053 C126.99252,32.2518384 127.634409,32 128.736842,32 L174.210526,32 C175.205977,32 175.847866,32.2518384 176.736842,32.8421053 C176.846374,33.2592069 177.095998,33.9067912 176.736842,34.5263158 L176.736842,41.2631579 C177.095998,42.5053681 176.632411,43.5127215 175.894737,44.6315789 L157.368421,63.1578947 L158.210526,63.1578947 C165.434937,64.0917251 170.873161,66.1783858 175.052632,69.8947368 C178.932551,73.3738752 180.947368,78.5185729 180.947368,85.0526316 C180.947368,89.9594011 179.681421,94.0967454 176.736842,97.6842105 C174.617557,101.148325 171.122829,103.864582 166.631579,106.105263 C162.207575,107.678191 157.125956,108.631579 151.473684,108.631579 C145.072532,108.631579 139.705629,107.624226 135.473684,105.263158 Z M204.526316,105.263158 C199.924049,102.875205 196.404944,99.7092369 193.578947,96 C191.449395,91.6502887 190.210526,87.1171984 190.210526,81.6842105 C190.210526,75.7483251 193.011447,68.7688051 198.631579,61.4736842 L218,34.5263158 C218.794566,33.4390871 219.333204,32.8994335 219.684211,32.8421053 C220.338678,32.1798845 221.056863,32 222.210526,32 L232.315789,32 C232.871127,32 233.391811,32.2338499 234,32.8421053 C234.181826,33.1692635 234.379327,33.7269056 234,34.5263158 C234.379327,34.8781839 234.23569,35.3458837 234,35.3684211 L218.842105,56.4210526 C220.015495,56.3206311 221.523683,56.1767235 223.052632,56.4210526 C228.202901,56.2486784 232.637691,57.4179279 236.526316,59.7894737 C240.7533,61.9510862 243.985131,65.0271118 246.631579,69.0526316 C248.797041,72.7982403 250,77.1154692 250,81.6842105 C250,86.757425 248.797041,91.23655 246.631579,95.1578947 C243.985131,99.367453 240.537844,102.605375 235.684211,105.263158 C231.560401,107.426353 226.335607,108.631579 220.526316,108.631579 C214.341743,108.631579 209.045131,107.480318 204.526316,105.263158 Z M230.631579,92.6315789 C233.448072,89.8305099 234.842105,86.4149781 234.842105,81.6842105 C234.842105,77.7597835 233.465945,74.3800164 230.631579,71.5789474 C227.961219,69.4444095 224.547625,68.2105263 220.526316,68.2105263 C216.469262,68.2105263 213.091413,69.4444095 210.421053,71.5789474 C207.586687,74.3800164 206.210526,77.7597835 206.210526,81.6842105 C206.210526,86.4149781 207.586687,89.8305099 210.421053,92.6315789 C213.091413,94.7661168 216.469262,96 220.526316,96 C224.476135,96 227.871857,94.7661168 230.631579,92.6315789 Z" id="36" fill="#FFFFFF"></path>
                    </g>
                </g>
            </g>
        </g>
    </g>
</svg>