<?xml version="1.0" encoding="UTF-8" standalone="no"?>
<svg
   xmlns:dc="http://purl.org/dc/elements/1.1/"
   xmlns:cc="http://creativecommons.org/ns#"
   xmlns:rdf="http://www.w3.org/1999/02/22-rdf-syntax-ns#"
   xmlns:svg="http://www.w3.org/2000/svg"
   xmlns="http://www.w3.org/2000/svg"
   xmlns:sodipodi="http://sodipodi.sourceforge.net/DTD/sodipodi-0.dtd"
   xmlns:inkscape="http://www.inkscape.org/namespaces/inkscape"
   width="140px"
   height="48px"
   viewBox="0 0 140 48"
   version="1.1"
   id="svg20"
   sodipodi:docname="Logo.svg"
   inkscape:version="0.92.3 (2405546, 2018-03-11)">
  <metadata
     id="metadata24">
    <rdf:RDF>
      <cc:Work
         rdf:about="">
        <dc:format>image/svg+xml</dc:format>
        <dc:type
           rdf:resource="http://purl.org/dc/dcmitype/StillImage" />
      </cc:Work>
    </rdf:RDF>
  </metadata>
  <sodipodi:namedview
     pagecolor="#ffffff"
     bordercolor="#666666"
     borderopacity="1"
     objecttolerance="10"
     gridtolerance="10"
     guidetolerance="10"
     inkscape:pageopacity="0"
     inkscape:pageshadow="2"
     inkscape:window-width="3796"
     inkscape:window-height="2130"
     id="namedview22"
     showgrid="false"
     inkscape:zoom="13.57645"
     inkscape:cx="63.820771"
     inkscape:cy="24.379049"
     inkscape:window-x="44"
     inkscape:window-y="0"
     inkscape:window-maximized="1"
     inkscape:current-layer="svg20"
     showguides="true"
     inkscape:guide-bbox="true">
    <sodipodi:guide
       position="37.417734,52.959352"
       orientation="1,0"
       id="guide884"
       inkscape:locked="false" />
  </sodipodi:namedview>
  <!-- Generator: sketchtool 52.2 (67145) - http://www.bohemiancoding.com/sketch -->
  <title
     id="title2">BF7468AE-16BB-4698-8F41-BE253E1D10E6</title>
  <desc
     id="desc4">Created with sketchtool.</desc>
  <defs
     id="defs11">
    <linearGradient
       x1="25.789107"
       y1="12.889323"
       x2="0"
       y2="46.592777"
       id="linearGradient-1"
       gradientTransform="scale(0.84162541,1.1881771)"
       gradientUnits="userSpaceOnUse">
      <stop
         stop-color="#63B4F5"
         offset="0%"
         id="stop6" />
      <stop
         stop-color="#017EE5"
         offset="100%"
         id="stop8" />
    </linearGradient>
  </defs>
  <g
     id="g856"
     transform="matrix(0.85743762,0.15815737,-0.15718474,0.86274326,7.1647958,0.75280055)">
    <g
       id="Group-6"
       style="fill:none;fill-rule:evenodd;stroke:none;stroke-width:1">
      <path
         d="m 4,0 h 26 c 2.209139,0 4,1.790861 4,4 v 40 c 0,2.209139 -1.790861,4 -4,4 H 4 C 1.790861,48 0,46.209139 0,44 V 4 C 0,1.790861 1.790861,0 4,0 Z"
         id="Container--2"
         style="fill:url(#linearGradient-1)"
         inkscape:connector-curvature="0" />
      <path
         d="M 15.701535,13.605634 C 15.141187,13.342722 14.722072,13.011739 14.444176,12.612676 14.16628,12.213613 14.018223,11.802819 14,11.380282 c 0,-0.08451 0.02733,-0.15493 0.082,-0.211268 0.05467,-0.05634 0.123002,-0.08451 0.205004,-0.08451 h 1.257359 c 0.20045,0 0.337118,0.0939 0.410008,0.28169 0.20045,0.66667 0.80179,1 1.804037,1 0.555792,0 0.990852,-0.131454 1.305194,-0.394366 0.314341,-0.262912 0.47151,-0.638495 0.47151,-1.126761 0,-0.488265 -0.143502,-0.842721 -0.430509,-1.0633799 C 18.817597,9.5610318 18.396204,9.4507042 17.840412,9.4507042 h -1.407695 c -0.09111,0 -0.168559,-0.032864 -0.232339,-0.098592 -0.06378,-0.065728 -0.09567,-0.1455395 -0.09567,-0.2394366 V 8.5070423 c 0,-0.1784047 0.05922,-0.3192484 0.17767,-0.4225353 l 2.432717,-2.4507042 h -3.89508 c -0.100225,0 -0.182226,-0.032863 -0.246005,-0.098591 C 14.51023,5.4694838 14.47834,5.3896723 14.47834,5.2957751 V 4.3521127 c 0,-0.1032869 0.03189,-0.1877931 0.09567,-0.2535212 C 14.637791,4.0328635 14.719792,4 14.820017,4 h 5.876787 c 0.100225,0 0.182226,0.032864 0.246005,0.098592 0.06378,0.065728 0.09567,0.1502343 0.09567,0.2535212 v 0.8591549 c 0,0.1596252 -0.05922,0.2910793 -0.177671,0.3943662 l -2.350715,2.4929578 0.164004,0.014084 c 0.874689,0.075118 1.569418,0.3474155 2.084209,0.8169014 0.514791,0.4694859 0.772183,1.1408405 0.772183,2.0140845 0,0.619721 -0.161724,1.159622 -0.485177,1.619718 -0.323453,0.460096 -0.769902,0.814553 -1.339361,1.063381 C 19.136491,13.875588 18.487318,14 17.75841,14 16.947501,14 16.261882,13.868546 15.701535,13.605634 Z m 8.77418,-0.05634 c -0.57857,-0.300471 -1.02502,-0.713613 -1.339361,-1.239437 -0.314341,-0.525824 -0.47151,-1.117368 -0.47151,-1.774648 0,-0.8262949 0.355337,-1.737084 1.066022,-2.7323941 L 26.218251,4.2816901 C 26.291141,4.187793 26.359475,4.1173711 26.423255,4.0704225 26.487034,4.0234739 26.578146,4 26.696594,4 h 1.29836 c 0.082,0 0.148058,0.030516 0.19817,0.091549 0.05011,0.061033 0.07517,0.1338024 0.07517,0.2183099 0,0.065728 -0.01822,0.1267602 -0.05467,0.1830986 l -1.913373,2.7183098 c 0.145782,-0.037559 0.337117,-0.056338 0.574012,-0.056338 0.61046,0.00939 1.173077,0.1619703 1.687868,0.4577465 0.514791,0.2957761 0.924795,0.6971805 1.230025,1.2042253 0.30523,0.5070448 0.457843,1.0704195 0.457843,1.6901409 0,0.638501 -0.152613,1.223002 -0.457843,1.753521 -0.30523,0.53052 -0.742568,0.95305 -1.312027,1.267606 C 27.910671,13.842725 27.247831,14 26.49159,14 25.726237,14 25.054285,13.849767 24.475715,13.549296 Z m 3.286901,-1.669014 c 0.355342,-0.323946 0.533011,-0.772298 0.533011,-1.345071 0,-0.5633828 -0.175391,-1.0070404 -0.526178,-1.3309856 -0.350787,-0.3239453 -0.785847,-0.4859155 -1.305193,-0.4859155 -0.510236,0 -0.94074,0.1619702 -1.291527,0.4859155 -0.350787,0.3239452 -0.526177,0.7676028 -0.526177,1.3309856 0,0.572773 0.17539,1.021125 0.526177,1.345071 0.350787,0.323945 0.781291,0.485915 1.291527,0.485915 0.510235,0 0.943017,-0.16197 1.29836,-0.485915 z"
         id="36-"
         inkscape:connector-curvature="0"
         style="fill:#ffffff" />
    </g>
  </g>
  <text
     xml:space="preserve"
     style="font-style:normal;font-variant:normal;font-weight:normal;font-stretch:normal;font-size:40px;line-height:1.25;font-family:Rubik;-inkscape-font-specification:Rubik;letter-spacing:0px;word-spacing:0px;fill:#01152c;fill-opacity:1;stroke:none"
     x="39.76004"
     y="29.577742"
     id="text851-3"><tspan
       sodipodi:role="line"
       x="39.76004"
       y="29.577742"
       style="font-style:normal;font-variant:normal;font-weight:normal;font-stretch:normal;font-size:16px;font-family:Rubik;-inkscape-font-specification:Rubik;fill:#01152c;fill-opacity:1"
       id="tspan862-6"><tspan
   style="font-size:14.66666698px"
   id="tspan886">KYC</tspan>-network</tspan></text>
</svg>
