<?xml version="1.0" encoding="UTF-8"?>
<svg width="34px" height="48px" viewBox="0 0 34 48" version="1.1" xmlns="http://www.w3.org/2000/svg" xmlns:xlink="http://www.w3.org/1999/xlink">
    <!-- Generator: sketchtool 52.3 (67297) - http://www.bohemiancoding.com/sketch -->
    <title>F81CFEB9-D028-4510-BC3F-5F7CB776A032</title>
    <desc>Created with sketchtool.</desc>
    <defs>
        <linearGradient x1="63.8375539%" y1="31.9058287%" x2="0%" y2="115.334302%" id="linearGradient-1">
            <stop stop-color="#63B4F5" offset="0%"></stop>
            <stop stop-color="#017EE5" offset="100%"></stop>
        </linearGradient>
    </defs>
    <g id="Landing---Desktop" stroke="none" stroke-width="1" fill="none" fill-rule="evenodd">
        <g id="Landing---Home" transform="translate(-55.000000, -48.000000)">
            <g id="Logo" transform="translate(55.000000, 48.000000)">
                <g id="Group-6">
                    <path d="M4,0 L30,0 C32.209139,-4.05812251e-16 34,1.790861 34,4 L34,44 C34,46.209139 32.209139,48 30,48 L4,48 C1.790861,48 2.705415e-16,46.209139 0,44 L0,4 C-2.705415e-16,1.790861 1.790861,4.05812251e-16 4,0 Z" id="Rectangle--2" fill="url(#linearGradient-1)"></path>
                    <path d="M15.7015349,13.6056338 C15.1411873,13.3427217 14.7220718,13.0117391 14.4441758,12.6126761 C14.1662798,12.213613 14.0182227,11.802819 14,11.3802817 C14,11.2957742 14.0273336,11.2253524 14.0820017,11.1690141 C14.1366697,11.1126758 14.2050038,11.084507 14.2870059,11.084507 L15.544365,11.084507 C15.7448146,11.084507 15.8814827,11.1784028 15.9543734,11.3661972 C16.154823,12.0328672 16.7561626,12.3661972 17.7584104,12.3661972 C18.3142024,12.3661972 18.7492625,12.2347431 19.0636039,11.971831 C19.3779452,11.7089189 19.5351135,11.3333358 19.5351135,10.8450704 C19.5351135,10.3568051 19.391612,10.0023485 19.1046047,9.78169014 C18.8175974,9.56103176 18.3962041,9.45070423 17.8404121,9.45070423 L16.4327166,9.45070423 C16.3416031,9.45070423 16.2641579,9.4178407 16.2003785,9.35211268 C16.1365991,9.28638465 16.1047098,9.20657324 16.1047098,9.11267606 L16.1047098,8.50704225 C16.1047098,8.32863761 16.1639327,8.18779394 16.2823802,8.08450704 L18.7150967,5.63380282 L14.8200168,5.63380282 C14.719792,5.63380282 14.6377912,5.6009393 14.5740118,5.53521127 C14.5102324,5.46948324 14.4783431,5.38967183 14.4783431,5.29577465 L14.4783431,4.35211268 C14.4783431,4.24882577 14.5102324,4.16431958 14.5740118,4.09859155 C14.6377912,4.03286352 14.719792,4 14.8200168,4 L20.696804,4 C20.7970288,4 20.8790297,4.03286352 20.9428091,4.09859155 C21.0065885,4.16431958 21.0384777,4.24882577 21.0384777,4.35211268 L21.0384777,5.21126761 C21.0384777,5.37089282 20.9792549,5.5023469 20.8608074,5.6056338 L18.5100925,8.09859155 L18.6740959,8.11267606 C19.5487849,8.1877938 20.2435144,8.46009155 20.7583053,8.92957746 C21.2730962,9.39906338 21.5304878,10.0704182 21.5304878,10.943662 C21.5304878,11.5633834 21.3687639,12.1032841 21.0453112,12.5633803 C20.7218585,13.0234765 20.2754094,13.377933 19.7059504,13.6267606 C19.1364914,13.8755881 18.4873179,14 17.7584104,14 C16.9475009,14 16.2618825,13.8685459 15.7015349,13.6056338 Z M24.4757149,13.5492958 C23.8971446,13.2488248 23.4506954,12.8356834 23.1363541,12.3098592 C22.8220127,11.7840349 22.6648444,11.1924915 22.6648444,10.5352113 C22.6648444,9.70891606 23.0201815,8.79812704 23.7308663,7.8028169 L26.2182506,4.28169014 C26.2911414,4.18779296 26.3594754,4.11737113 26.4232548,4.07042254 C26.4870342,4.02347394 26.5781463,4 26.6965938,4 L27.9949537,4 C28.0769558,4 28.1430121,4.03051613 28.1931245,4.0915493 C28.2432369,4.15258246 28.2682927,4.22535169 28.2682927,4.30985915 C28.2682927,4.37558718 28.2500703,4.43661944 28.2136249,4.49295775 L26.3002523,7.21126761 C26.4460338,7.17370873 26.6373692,7.15492958 26.8742641,7.15492958 C27.4847241,7.1643193 28.0473411,7.31689993 28.562132,7.61267606 C29.076923,7.90845218 29.4869273,8.30985662 29.7921573,8.81690141 C30.0973873,9.3239462 30.25,9.88732085 30.25,10.5070423 C30.25,11.1455431 30.0973873,11.7300443 29.7921573,12.2605634 C29.4869273,12.7910825 29.0495893,13.2136135 28.4801304,13.528169 C27.9106714,13.8427246 27.2478311,14 26.4915896,14 C25.7262367,14 25.0542852,13.8497668 24.4757149,13.5492958 Z M27.7626156,11.8802817 C28.117958,11.5563364 28.2956266,11.1079841 28.2956266,10.5352113 C28.2956266,9.97182817 28.1202358,9.52817063 27.7694491,9.20422535 C27.4186624,8.88028007 26.9836023,8.71830986 26.4642557,8.71830986 C25.9540204,8.71830986 25.5235159,8.88028007 25.1727292,9.20422535 C24.8219425,9.52817063 24.6465517,9.97182817 24.6465517,10.5352113 C24.6465517,11.1079841 24.8219425,11.5563364 25.1727292,11.8802817 C25.5235159,12.204227 25.9540204,12.3661972 26.4642557,12.3661972 C26.9744909,12.3661972 27.4072732,12.204227 27.7626156,11.8802817 Z" id="36-" fill="#FFFFFF"></path>
                </g>
            </g>
        </g>
    </g>
</svg>