<svg xmlns="http://www.w3.org/2000/svg" width="296" height="402" viewBox="0 0 296 402">
  <metadata><?xpacket begin="﻿" id="W5M0MpCehiHzreSzNTczkc9d"?>
<x:xmpmeta xmlns:x="adobe:ns:meta/" x:xmptk="Adobe XMP Core 5.6-c138 79.159824, 2016/09/14-01:09:01        ">
   <rdf:RDF xmlns:rdf="http://www.w3.org/1999/02/22-rdf-syntax-ns#">
      <rdf:Description rdf:about=""/>
   </rdf:RDF>
</x:xmpmeta>
                                                                                                    
                                                                                                    
                                                                                                    
                                                                                                    
                                                                                                    
                                                                                                    
                                                                                                    
                                                                                                    
                                                                                                    
                                                                                                    
                                                                                                    
                                                                                                    
                                                                                                    
                                                                                                    
                                                                                                    
                                                                                                    
                                                                                                    
                                                                                                    
                                                                                                    
                                                                                                    
                           
<?xpacket end="w"?></metadata>
<defs>
    <style>
      .cls-1 {
        fill: none;
        stroke: #fff;
        stroke-width: 15px;
      }

      .cls-1, .cls-2, .cls-3 {
        fill-rule: evenodd;
      }

      .cls-2 {
        fill: #fff;
      }

      .cls-3 {
        fill: #64b5f6;
      }
    </style>
  </defs>
  <g id="logo-b-cash">
    <path id="Rectangle_1_copy_7" data-name="Rectangle 1 copy 7" class="cls-1" d="M2535,1574h251a9,9,0,0,1,9,9v362a9,9,0,0,1-9,9H2535a9,9,0,0,1-9-9V1583A9,9,0,0,1,2535,1574Zm-0.93,0h252.86a8.066,8.066,0,0,1,8.07,8.07v363.86a8.066,8.066,0,0,1-8.07,8.07H2534.07a8.066,8.066,0,0,1-8.07-8.07V1582.07A8.066,8.066,0,0,1,2534.07,1574Z" transform="translate(-2512 -1564.5)"/>
    <path id="_36" data-name="36" class="cls-2" d="M2665.36,1715.48q15.78,0,22.98-9.18,7.215-9.18,7.21-25.23,0-11.145-3.6-17.14a18.951,18.951,0,0,0-9.86-8.29q5.835-1.635,9.65-8.23t3.81-15.98q0-14.55-8.02-22.17t-22.44-7.61q-14.145,0-22.1,7.95-7.965,7.965-7.96,22.78v6.67h22.71v-5.72q0-6.66,1.57-10.13t5.78-3.47q4.485,0,6.25,3.27t1.77,9.93q0,8.7-2.58,12.44t-9.52,3.74h-3.67v15.64h4.21q6.66,0.135,9.11,4.15t2.45,12.71q0,7.89-1.49,11.29t-5.99,3.4c-2.99,0-5.05-1.15-6.19-3.47s-1.7-6.27-1.7-11.9v-3.94h-22.71v3.94q0,16.6,6.94,25.57,6.93,8.985,23.39,8.98h0Zm70.31-.41q16.455,0,23.26-10.06t6.8-28.84q0-14.28-5.58-22.98t-17.54-8.7a21.894,21.894,0,0,0-8.71,1.63,11.633,11.633,0,0,0-5.57,4.49v-9.8a124.707,124.707,0,0,1,.54-13.6q0.54-4.485,2.11-6.39a5.7,5.7,0,0,1,4.69-1.9q4.35,0,5.51,2.85,1.155,2.865,1.15,10.2h21.36l-0.14-1.9q0-14.415-6.39-21.35t-21.63-6.94q-17,0-23.66,9.73t-6.66,27.54v39.84q0,16.6,7.48,26.39t22.98,9.79h0Zm0.27-16.73q-7.62,0-7.61-14.14v-17.95a9.362,9.362,0,0,1,2.99-3,7.756,7.756,0,0,1,4.35-1.36c2.27,0,3.9.71,4.9,2.11a12.03,12.03,0,0,1,1.9,5.58,93.971,93.971,0,0,1,.41,10.13q0,10.2-1.29,14.42a5.424,5.424,0,0,1-5.65,4.21h0Z" transform="translate(-2512 -1564.5)"/>
    <path id="cash" class="cls-3" d="M2605.04,1916.6q7.44,0,11.52-3.6t4.08-10.48v-5.6h-12.56v6.16a6.424,6.424,0,0,1-.72,3.52,2.547,2.547,0,0,1-2.24,1.04,2.431,2.431,0,0,1-2.24-1.2,8.65,8.65,0,0,1-.72-4.16v-19.2a9.426,9.426,0,0,1,.68-4.2,2.316,2.316,0,0,1,2.2-1.24,2.682,2.682,0,0,1,2.28,1,6.289,6.289,0,0,1,.76,3.64v5.28h12.56v-4.88q0-6.885-4.04-10.4t-11.56-3.52q-7.605,0-11.8,4.04t-4.2,11.4v16.96q0,7.275,4.24,11.36t11.76,4.08h0Zm31.92,0a8.006,8.006,0,0,0,5.68-2.08,11.644,11.644,0,0,0,3.2-5.28q0.315,1.2,1.04,6.56h11.68a81.805,81.805,0,0,1-.8-11.52v-21.6q0-6.315-3.6-10.12t-10.4-3.8q-7.68,0-11.8,3.56t-4.68,11.16l-0.08,1.52,12.16,0.48,0.32-3.36a5.279,5.279,0,0,1,.72-2.72,2.409,2.409,0,0,1,2.16-.96,2.249,2.249,0,0,1,2.12,1.04,6.189,6.189,0,0,1,.6,3.04v4.64l-2.56.96a67.958,67.958,0,0,0-8.32,3.72,17.646,17.646,0,0,0-5.72,5.12,13.712,13.712,0,0,0-2.44,8.36,12.335,12.335,0,0,0,1.24,5.4,10.455,10.455,0,0,0,3.68,4.24,10.184,10.184,0,0,0,5.8,1.64h0Zm4.64-8.8a3.112,3.112,0,0,1-2.56-1.36,5.935,5.935,0,0,1-1.04-3.68,9.451,9.451,0,0,1,2.04-5.48,14.207,14.207,0,0,1,5.24-4.44v12.64a7.463,7.463,0,0,1-1.68,1.64,3.443,3.443,0,0,1-2,.68h0Zm37.52,8.8a18.106,18.106,0,0,0,7.32-1.48,12.893,12.893,0,0,0,5.44-4.32,11.922,11.922,0,0,0,.88-11.8,15.705,15.705,0,0,0-2.8-4c-1.09-1.12-2.55-2.48-4.36-4.08l-3.28-2.88a53.081,53.081,0,0,1-5-4.48,4.625,4.625,0,0,1-1.48-3.04,2.509,2.509,0,0,1,.76-1.92,2.855,2.855,0,0,1,2.04-.72,4.783,4.783,0,0,1,3.68,2.04,13.41,13.41,0,0,1,2.48,4.6l8.4-3.84a16.775,16.775,0,0,0-5.4-8.84,14.574,14.574,0,0,0-9.48-3.08,15.569,15.569,0,0,0-7.04,1.64,13.489,13.489,0,0,0-5.24,4.52,11.368,11.368,0,0,0-1.96,6.56,12.325,12.325,0,0,0,1.88,6.88,31.587,31.587,0,0,0,6.04,6.4l3.36,2.8a63.078,63.078,0,0,1,4.88,4.28,4.61,4.61,0,0,1,1.52,2.84,3.184,3.184,0,0,1-.8,2.28,3.054,3.054,0,0,1-2.32.84,5.171,5.171,0,0,1-3.72-1.76,14.9,14.9,0,0,1-3-4.96l-8.88,3.92q2.4,6.075,6.28,8.84a16.494,16.494,0,0,0,9.8,2.76h0Zm20.4-.8h12.96v-36.16a9.911,9.911,0,0,1,4.24-1.68,2.335,2.335,0,0,1,2.04.84,4.516,4.516,0,0,1,.6,2.6v34.4h12.96v-36.24a12.724,12.724,0,0,0-2.24-7.8,7.337,7.337,0,0,0-6.24-3,15.584,15.584,0,0,0-11.36,4.88V1851h-12.96v64.8Z" transform="translate(-2512 -1564.5)"/>
  </g>
</svg>
