<?xml version="1.0" encoding="UTF-8"?>
<svg width="318px" height="424px" viewBox="0 0 318 424" version="1.1" xmlns="http://www.w3.org/2000/svg" xmlns:xlink="http://www.w3.org/1999/xlink">
    <!-- Generator: sketchtool 52.3 (67297) - http://www.bohemiancoding.com/sketch -->
    <title>0D1FCD35-780B-46A8-A85A-01F517CFEB8F</title>
    <desc>Created with sketchtool.</desc>
    <defs>
        <linearGradient x1="63.8375539%" y1="31.9058287%" x2="0%" y2="115.334302%" id="linearGradient-1">
            <stop stop-color="#63B4F5" offset="0%"></stop>
            <stop stop-color="#017EE5" offset="100%"></stop>
        </linearGradient>
        <path d="M55.2297674,10.8108108 L205.573953,10.8108108 C225.456204,10.8108108 241.573953,26.9285598 241.573953,46.8108108 L241.573953,345.981982 C241.573953,365.864233 225.456204,381.981982 205.573953,381.981982 L55.2297674,381.981982 C35.3475164,381.981982 19.2297674,365.864233 19.2297674,345.981982 L19.2297674,46.8108108 C19.2297674,26.9285598 35.3475164,10.8108108 55.2297674,10.8108108 Z" id="path-2"></path>
        <path d="M75.6613953,9.09494702e-13 L186.344186,9.16600129e-13 C206.226437,9.12947819e-13 222.344186,16.117749 222.344186,36 L222.344186,363.619325 C222.344186,383.501576 206.226437,399.619325 186.344186,399.619325 L75.6613953,399.619325 C55.7791444,399.619325 39.6613953,383.501576 39.6613953,363.619325 L39.6613953,36 C39.6613953,16.117749 55.7791444,9.20252439e-13 75.6613953,9.16600129e-13 Z" id="path-3"></path>
        <path d="M36,21.6216216 L221.942716,21.6216216 C241.824967,21.6216216 257.942716,37.7393706 257.942716,57.6216216 L257.942716,363.619325 C257.942716,383.501576 241.824967,399.619325 221.942716,399.619325 L36,399.619325 C16.117749,399.619325 6.59627146e-12,383.501576 6.59383659e-12,363.619325 L6.59383659e-12,57.6216216 C6.59140171e-12,37.7393706 16.117749,21.6216216 36,21.6216216 Z" id="path-4"></path>
        <linearGradient x1="-8.22899726%" y1="122.120787%" x2="144.060005%" y2="-16.3448034%" id="linearGradient-5">
            <stop stop-color="#E3F2FF" offset="0%"></stop>
            <stop stop-color="#FFFFFF" offset="100%"></stop>
        </linearGradient>
        <path d="M120.322347,124.784829 C116.071242,122.791327 112.891601,120.281688 110.783329,117.255837 C108.675057,114.229986 107.551814,111.115186 107.413567,107.911344 C107.413567,107.270575 107.620935,106.73661 108.035677,106.309431 C108.450419,105.882252 108.968839,105.668665 109.590952,105.668665 L119.12997,105.668665 C120.650691,105.668665 121.68753,106.38062 122.24052,107.80455 C123.76124,112.859501 128.323334,115.386939 135.926937,115.386939 C140.143481,115.386939 143.444087,114.390203 145.828853,112.396701 C148.21362,110.403199 149.405985,107.555382 149.405985,103.853164 C149.405985,100.150946 148.317304,97.4633187 146.139908,95.790201 C143.962513,94.1170833 140.765591,93.280537 136.549047,93.280537 L125.869494,93.280537 C125.178257,93.280537 124.590715,93.031353 124.106849,92.5329776 C123.622984,92.0346021 123.381054,91.429441 123.381054,90.717476 L123.381054,86.1253249 C123.381054,84.7725915 123.830351,83.7046601 124.728959,82.9214986 L143.184886,64.3393059 L113.634666,64.3393059 C112.874306,64.3393059 112.252202,64.0901219 111.768336,63.5917465 C111.284471,63.093371 111.042541,62.4882098 111.042541,61.7762449 L111.042541,54.6210327 C111.042541,53.8378713 111.284471,53.1971124 111.768336,52.698737 C112.252202,52.2003615 112.874306,51.9511775 113.634666,51.9511775 L158.219209,51.9511775 C158.979569,51.9511775 159.601673,52.2003615 160.085538,52.698737 C160.569404,53.1971124 160.811333,53.8378713 160.811333,54.6210327 L160.811333,61.1354796 C160.811333,62.34582 160.362036,63.342556 159.463428,64.1257175 L141.629611,83.0282928 L142.873831,83.135087 C149.509703,83.704659 154.780304,85.7693264 158.685791,89.3291512 C162.591278,92.8889761 164.543993,97.9794492 164.543993,104.600723 C164.543993,109.299692 163.317066,113.393429 160.863176,116.882058 C158.409286,120.370686 155.022277,123.058313 150.702047,124.945021 C146.381818,126.831728 141.456831,127.775067 135.926937,127.775067 C129.774931,127.775067 124.573453,126.778331 120.322347,124.784829 Z M186.888107,124.357652 C182.498754,122.079364 179.111745,118.946766 176.726978,114.959762 C174.342212,110.972758 173.149846,106.487446 173.149846,101.503691 C173.149846,95.2383996 175.845629,88.332443 181.237275,80.7856144 L200.107942,54.0870617 C200.660931,53.3750967 201.179351,52.841131 201.663217,52.4851485 C202.147082,52.1291661 202.838309,51.9511775 203.736916,51.9511775 L213.58699,51.9511775 C214.209103,51.9511775 214.710242,52.1825626 215.090422,52.6453398 C215.470602,53.1081171 215.660689,53.6598816 215.660689,54.3006501 C215.660689,54.7990256 215.522444,55.2617959 215.245949,55.6889749 L200.730052,76.3002575 C201.83603,76.0154715 203.287606,75.8730807 205.084821,75.8730807 C209.716107,75.9442772 213.984429,77.1012029 217.889917,79.3438925 C221.795404,81.5865822 224.905922,84.6301868 227.221565,88.4747976 C229.537208,92.3194084 230.695012,96.5911341 230.695012,101.290103 C230.695012,106.131465 229.537208,110.56338 227.221565,114.585982 C224.905922,118.608584 221.588036,121.812378 217.267807,124.197461 C212.947577,126.582544 207.918906,127.775067 202.181642,127.775067 C196.375253,127.775067 191.277459,126.63594 186.888107,124.357652 Z M211.824345,111.702538 C214.520168,109.246259 215.868059,105.846678 215.868059,101.503691 C215.868059,97.2319015 214.537449,93.8679175 211.876187,91.4116384 C209.214926,88.9553592 205.914321,87.7272381 201.974272,87.7272381 C198.103346,87.7272381 194.837302,88.9553592 192.176041,91.4116384 C189.514779,93.8679175 188.184169,97.2319015 188.184169,101.503691 C188.184169,105.846678 189.514779,109.246259 192.176041,111.702538 C194.837302,114.158818 198.103346,115.386939 201.974272,115.386939 C205.845197,115.386939 209.128522,114.158818 211.824345,111.702538 Z" id="path-6"></path>
        <filter x="-9.3%" y="-8.6%" width="118.7%" height="130.3%" filterUnits="objectBoundingBox" id="filter-7">
            <feOffset dx="0" dy="5" in="SourceAlpha" result="shadowOffsetOuter1"></feOffset>
            <feGaussianBlur stdDeviation="3" in="shadowOffsetOuter1" result="shadowBlurOuter1"></feGaussianBlur>
            <feColorMatrix values="0 0 0 0 0   0 0 0 0 0   0 0 0 0 0  0 0 0 0.05 0" type="matrix" in="shadowBlurOuter1"></feColorMatrix>
        </filter>
    </defs>
    <g id="Landing---Desktop" stroke="none" stroke-width="1" fill="none" fill-rule="evenodd">
        <g id="Landing---Home" transform="translate(-189.000000, -828.000000)">
            <g id="What's-Element36" transform="translate(178.000000, 814.000000)">
                <g id="Logo-Graphic" transform="translate(167.763379, 222.533293) rotate(-12.000000) translate(-167.763379, -222.533293) translate(38.763379, 22.533293)">
                    <g id="Rectangle--2" opacity="0.5">
                        <use fill="url(#linearGradient-1)" xlink:href="#path-2"></use>
                        <use fill-opacity="0.1" fill="#FFFFFF" xlink:href="#path-2"></use>
                    </g>
                    <g id="Rectangle--3" opacity="0.25">
                        <use fill="url(#linearGradient-1)" xlink:href="#path-3"></use>
                        <use fill-opacity="0.1" fill="#FFFFFF" xlink:href="#path-3"></use>
                    </g>
                    <g id="Rectangle--2">
                        <use fill="url(#linearGradient-1)" xlink:href="#path-4"></use>
                        <use fill-opacity="0.1" fill="#FFFFFF" xlink:href="#path-4"></use>
                    </g>
                    <g id="36-">
                        <use fill="black" fill-opacity="1" filter="url(#filter-7)" xlink:href="#path-6"></use>
                        <use fill="url(#linearGradient-5)" fill-rule="evenodd" xlink:href="#path-6"></use>
                    </g>
                </g>
            </g>
        </g>
    </g>
</svg>