<svg xmlns="http://www.w3.org/2000/svg" width="296" height="402" viewBox="0 0 296 402">
  <metadata><?xpacket begin="﻿" id="W5M0MpCehiHzreSzNTczkc9d"?>
<x:xmpmeta xmlns:x="adobe:ns:meta/" x:xmptk="Adobe XMP Core 5.6-c138 79.159824, 2016/09/14-01:09:01        ">
   <rdf:RDF xmlns:rdf="http://www.w3.org/1999/02/22-rdf-syntax-ns#">
      <rdf:Description rdf:about=""/>
   </rdf:RDF>
</x:xmpmeta>
                                                                                                    
                                                                                                    
                                                                                                    
                                                                                                    
                                                                                                    
                                                                                                    
                                                                                                    
                                                                                                    
                                                                                                    
                                                                                                    
                                                                                                    
                                                                                                    
                                                                                                    
                                                                                                    
                                                                                                    
                                                                                                    
                                                                                                    
                                                                                                    
                                                                                                    
                                                                                                    
                           
<?xpacket end="w"?></metadata>
<defs>
    <style>
      .cls-1 {
        fill: none;
        stroke: #fff;
        stroke-width: 15px;
      }

      .cls-1, .cls-2 {
        fill-rule: evenodd;
      }

      .cls-2 {
        fill: #fff;
      }
    </style>
  </defs>
  <g id="logo-b">
    <path id="Rectangle_1_copy_7" data-name="Rectangle 1 copy 7" class="cls-1" d="M1641,1574h251a9,9,0,0,1,9,9v362a9,9,0,0,1-9,9H1641a9,9,0,0,1-9-9V1583A9,9,0,0,1,1641,1574Zm-0.93,0h252.86a8.066,8.066,0,0,1,8.07,8.07v363.86a8.066,8.066,0,0,1-8.07,8.07H1640.07a8.066,8.066,0,0,1-8.07-8.07V1582.07A8.066,8.066,0,0,1,1640.07,1574Z" transform="translate(-1618 -1564.5)"/>
    <path id="_36" data-name="36" class="cls-2" d="M1771.36,1715.48q15.78,0,22.98-9.18,7.215-9.18,7.21-25.23,0-11.145-3.6-17.14a18.951,18.951,0,0,0-9.86-8.29q5.835-1.635,9.65-8.23t3.81-15.98q0-14.55-8.02-22.17t-22.44-7.61q-14.145,0-22.1,7.95-7.965,7.965-7.96,22.78v6.67h22.71v-5.72q0-6.66,1.57-10.13t5.78-3.47q4.485,0,6.25,3.27t1.77,9.93q0,8.7-2.58,12.44-2.6,3.735-9.52,3.74h-3.67v15.64h4.21q6.66,0.135,9.11,4.15t2.45,12.71q0,7.89-1.49,11.29t-5.99,3.4c-2.99,0-5.05-1.15-6.19-3.47s-1.7-6.27-1.7-11.9v-3.94h-22.71v3.94q0,16.6,6.94,25.57,6.93,8.985,23.39,8.98h0Zm70.31-.41q16.455,0,23.26-10.06t6.8-28.84q0-14.28-5.58-22.98t-17.54-8.7a21.894,21.894,0,0,0-8.71,1.63,11.633,11.633,0,0,0-5.57,4.49v-9.8a124.707,124.707,0,0,1,.54-13.6q0.54-4.485,2.11-6.39a5.7,5.7,0,0,1,4.69-1.9q4.35,0,5.51,2.85,1.155,2.865,1.15,10.2h21.36l-0.14-1.9q0-14.415-6.39-21.35t-21.63-6.94q-16.995,0-23.66,9.73t-6.66,27.54v39.84q0,16.6,7.48,26.39t22.98,9.79h0Zm0.27-16.73q-7.62,0-7.61-14.14v-17.95a9.362,9.362,0,0,1,2.99-3,7.756,7.756,0,0,1,4.35-1.36c2.27,0,3.9.71,4.9,2.11a12.03,12.03,0,0,1,1.9,5.58,93.971,93.971,0,0,1,.41,10.13q0,10.2-1.29,14.42a5.424,5.424,0,0,1-5.65,4.21h0Z" transform="translate(-1618 -1564.5)"/>
  </g>
</svg>
