<?xml version="1.0" encoding="UTF-8" standalone="no"?>
<svg
   xmlns:dc="http://purl.org/dc/elements/1.1/"
   xmlns:cc="http://creativecommons.org/ns#"
   xmlns:rdf="http://www.w3.org/1999/02/22-rdf-syntax-ns#"
   xmlns:svg="http://www.w3.org/2000/svg"
   xmlns="http://www.w3.org/2000/svg"
   xmlns:xlink="http://www.w3.org/1999/xlink"
   xmlns:sodipodi="http://sodipodi.sourceforge.net/DTD/sodipodi-0.dtd"
   xmlns:inkscape="http://www.inkscape.org/namespaces/inkscape"
   sodipodi:docname="euro-icon.svg"
   inkscape:version="1.0 (4035a4f, 2020-05-01)"
   id="svg2919"
   version="1.1"
   viewBox="0 0 6.7263193 9.6000004"
   height="9.6000004mm"
   width="6.7263193mm">
  <defs
     id="defs2913">
    <linearGradient
       gradientTransform="matrix(-0.26200842,0.03682288,-0.03682288,-0.26200842,95.579589,134.16304)"
       x1="257.25031"
       y1="108.83739"
       x2="214.34811"
       y2="151.99301"
       id="linearGradient-1"
       gradientUnits="userSpaceOnUse">
      <stop
         stop-color="#69B4EF"
         offset="0%"
         id="stop3574" />
      <stop
         stop-color="#623479"
         offset="100%"
         id="stop3576" />
    </linearGradient>
    <path
       d="m 226.42,141.16 c -0.94934,0 -1.752,-0.14933 -2.408,-0.448 -0.656,-0.29867 -1.14667,-0.67466 -1.472,-1.128 -0.32534,-0.45334 -0.49867,-0.92 -0.52,-1.4 0,-0.096 0.032,-0.176 0.096,-0.24 0.064,-0.064 0.144,-0.096 0.24,-0.096 h 1.472 c 0.23467,0 0.39467,0.10667 0.48,0.32 0.23467,0.75734 0.93866,1.136 2.112,1.136 0.65067,0 1.16,-0.14933 1.528,-0.448 0.368,-0.29867 0.552,-0.72533 0.552,-1.28 0,-0.55467 -0.168,-0.95733 -0.504,-1.208 -0.336,-0.25067 -0.82933,-0.376 -1.48,-0.376 h -1.648 c -0.10667,0 -0.19733,-0.0373 -0.272,-0.112 -0.0747,-0.0747 -0.112,-0.16533 -0.112,-0.272 v -0.688 c 0,-0.20267 0.0693,-0.36267 0.208,-0.48 l 2.848,-2.784 h -4.56 c -0.11733,0 -0.21333,-0.0373 -0.288,-0.112 -0.0747,-0.0747 -0.112,-0.16533 -0.112,-0.272 V 130.2 c 0,-0.11733 0.0373,-0.21333 0.112,-0.288 0.0747,-0.0747 0.17067,-0.112 0.288,-0.112 h 6.88 c 0.11733,0 0.21333,0.0373 0.288,0.112 0.0747,0.0747 0.112,0.17067 0.112,0.288 v 0.976 c 0,0.18133 -0.0693,0.33067 -0.208,0.448 l -2.752,2.832 0.192,0.016 c 1.024,0.0853 1.83733,0.39466 2.44,0.928 0.60267,0.53334 0.904,1.29599 0.904,2.288 0,0.704 -0.18933,1.31733 -0.568,1.84 -0.37867,0.52267 -0.90133,0.92533 -1.568,1.208 -0.66667,0.28267 -1.42666,0.424 -2.28,0.424 z m 10.224,0 c -0.896,0 -1.68266,-0.17067 -2.36,-0.512 -0.67734,-0.34134 -1.2,-0.81066 -1.568,-1.408 -0.368,-0.59734 -0.552,-1.26933 -0.552,-2.016 0,-0.93867 0.416,-1.97333 1.248,-3.104 l 2.912,-4 c 0.0853,-0.10667 0.16533,-0.18667 0.24,-0.24 0.0747,-0.0533 0.18133,-0.08 0.32,-0.08 h 1.52 c 0.096,0 0.17333,0.0347 0.232,0.104 0.0587,0.0693 0.088,0.152 0.088,0.248 0,0.0747 -0.0213,0.144 -0.064,0.208 l -2.24,3.088 c 0.17067,-0.0427 0.39466,-0.064 0.672,-0.064 0.71467,0.0107 1.37333,0.184 1.976,0.52 0.60267,0.336 1.08266,0.792 1.44,1.368 0.35733,0.576 0.536,1.216 0.536,1.92 0,0.72534 -0.17867,1.38933 -0.536,1.992 -0.35734,0.60267 -0.86933,1.08266 -1.536,1.44 -0.66667,0.35733 -1.44266,0.536 -2.328,0.536 z m -0.032,-1.856 c 0.59734,0 1.104,-0.184 1.52,-0.552 0.416,-0.368 0.624,-0.87733 0.624,-1.528 0,-0.64 -0.20533,-1.144 -0.616,-1.512 -0.41067,-0.368 -0.92,-0.552 -1.528,-0.552 -0.59734,0 -1.10133,0.184 -1.512,0.552 -0.41067,0.368 -0.616,0.872 -0.616,1.512 0,0.65067 0.20533,1.16 0.616,1.528 0.41067,0.368 0.91466,0.552 1.512,0.552 z"
       id="path-2" />
    <linearGradient
       gradientTransform="matrix(1.9767181,0,0,2.3399795,-71.209272,-243.96566)"
       gradientUnits="userSpaceOnUse"
       y2="107.20333"
       x2="37.29702"
       y1="105.31759"
       x1="38.896038"
       id="linearGradient3664"
       xlink:href="#linearGradient-1"
       inkscape:collect="always" />
    <linearGradient
       x1="214.93829"
       y1="107.42556"
       x2="0"
       y2="388.32568"
       id="linearGradient-1-5"
       gradientTransform="scale(0.83755151,1.1939564)"
       gradientUnits="userSpaceOnUse">
      <stop
         stop-color="#63B4F5"
         offset="0%"
         id="stop3670" />
      <stop
         stop-color="#017EE5"
         offset="100%"
         id="stop3672" />
    </linearGradient>
    <filter
       height="1.0722101"
       y="-0.03610507"
       width="1.0431247"
       x="-0.021562351"
       id="filter4828"
       style="color-interpolation-filters:sRGB"
       inkscape:collect="always">
      <feGaussianBlur
         id="feGaussianBlur4830"
         stdDeviation="0.018840257"
         inkscape:collect="always" />
    </filter>
  </defs>
  <sodipodi:namedview
     inkscape:window-maximized="0"
     inkscape:window-y="83"
     inkscape:window-x="264"
     inkscape:window-height="1915"
     inkscape:window-width="1768"
     showgrid="false"
     inkscape:document-rotation="0"
     inkscape:current-layer="layer1"
     inkscape:document-units="mm"
     inkscape:cy="100.49451"
     inkscape:cx="-5.299722"
     inkscape:zoom="6.834624"
     inkscape:pageshadow="2"
     inkscape:pageopacity="0.0"
     borderopacity="1.0"
     bordercolor="#666666"
     pagecolor="#ffffff"
     id="base" />
  <metadata
     id="metadata2916">
    <rdf:RDF>
      <cc:Work
         rdf:about="">
        <dc:format>image/svg+xml</dc:format>
        <dc:type
           rdf:resource="http://purl.org/dc/dcmitype/StillImage" />
        <dc:title></dc:title>
      </cc:Work>
    </rdf:RDF>
  </metadata>
  <g
     id="layer1"
     inkscape:groupmode="layer"
     inkscape:label="Layer 1">
    <rect
       ry="1.277505"
       y="9.7412112e-07"
       x="-4.1748046e-07"
       height="9.6000004"
       width="6.7263193"
       id="rect3656"
       style="opacity:0.65;fill:url(#linearGradient3664);fill-opacity:1;stroke-width:1.99079;stroke-miterlimit:4;stroke-dasharray:none" />
    <path
       d="m 5.8938171,6.1942496 c 0.04487,-0.0215 0.09048,-0.0231 0.135862,-0.006 0.04567,0.0165 0.07609,0.0503 0.09102,0.10064 0.120848,0.32031 0.147874,0.65499 0.08078,1.00422 -0.0671,0.34923 -0.234864,0.68246 -0.503324,0.99972 -0.268434,0.31732 -0.62696,0.58305 -1.075506,0.79732 -0.63794,0.30476 -1.209717,0.38395 -1.715225,0.23788 -0.505542,-0.14614 -0.918572,-0.50466 -1.239095,-1.07562 l -0.485928,0.23214 c -0.04984,0.0237 -0.09995,0.0254 -0.150367,0.004 -0.05037,-0.0207 -0.08669,-0.0577 -0.10895102,-0.11145 l -0.193045,-0.46521 c -0.02439,-0.0587 -0.02635,-0.1138 -0.0058,-0.16538 0.0205,-0.0513 0.05557,-0.0892 0.105397,-0.11294 l 0.46350002,-0.22143 -0.126489,-0.30482 -0.46349902,0.22142 c -0.04984,0.0237 -0.09995,0.0254 -0.150366,0.004 -0.05037,-0.0207 -0.08669,-0.0577 -0.108951,-0.11147 l -0.193046,-0.4652 c -0.02439,-0.0588 -0.02634,-0.11381 -0.0058,-0.16535 0.0205,-0.0513 0.05557,-0.0893 0.105396,-0.11296 l 0.485928,-0.23213 c -0.188196,-0.64057 -0.164289,-1.21263 0.07166,-1.71619 0.23594102,-0.50358 0.67536802,-0.90893 1.31829102,-1.21603 0.448548,-0.2143 0.872536,-0.32226 1.271891,-0.32407 0.399405,-10e-4 0.742449,0.0875 1.029219,0.26763 0.286763,0.18017 0.500587,0.42563 0.641472,0.73635 l 0.007,0.0169 c 0.01774,0.0427 0.01656,0.0866 -0.0036,0.13158 -0.02017,0.045 -0.05023,0.0769 -0.0901,0.0959 l -0.725155,0.34639 c -0.05982,0.0285 -0.113459,0.0359 -0.160343,0.0237 -0.04708,-0.0128 -0.09615,-0.0517 -0.147162,-0.11719 -0.187937,-0.23701 -0.399607,-0.37295 -0.635048,-0.40787 -0.23542,-0.0349 -0.502672,0.0191 -0.801704,0.16194 -0.618004,0.29521 -0.843703,0.78747 -0.6771,1.47678 l 1.233506,-0.58923 c 0.05485,-0.0262 0.105656,-0.0295 0.152505,-0.01 0.04677,0.0192 0.08245,0.0584 0.106837,0.11717 l 0.193044,0.46521 c 0.02223,0.0535 0.02356,0.10719 0.0043,0.16144 -0.01936,0.0541 -0.05397,0.093 -0.103799,0.11682 l -1.263411,0.60354 0.12649,0.30482 1.263409,-0.60353 c 0.05484,-0.0262 0.105655,-0.0295 0.152503,-0.01 0.04677,0.0192 0.08245,0.0584 0.106837,0.11718 l 0.193045,0.4652 c 0.02223,0.0535 0.02481,0.10654 0.008,0.15963 -0.01689,0.0528 -0.05271,0.0925 -0.107534,0.11864 l -1.233505,0.58923 c 0.361514,0.58339 0.851271,0.72747 1.469275,0.43226 0.299032,-0.14285 0.515223,-0.31985 0.648594,-0.5309 0.133388,-0.21104 0.180849,-0.47083 0.142438,-0.77927 -0.01114,-0.0843 -0.0054,-0.14965 0.01731,-0.19576 0.02267,-0.046 0.06394,-0.0834 0.123747,-0.11199 z"
       id="€"
       fill="#ffffff"
       style="opacity:0.9;fill-rule:evenodd;stroke:none;stroke-width:0.470918" />
    <text
       id="text4808"
       y="1.8728571"
       x="3.9445891"
       style="font-style:normal;font-variant:normal;font-weight:normal;font-stretch:normal;font-size:1.76389px;line-height:1.25;font-family:Rubik;-inkscape-font-specification:Rubik;letter-spacing:0px;word-spacing:0px;opacity:0.7;fill:#000000;fill-opacity:1;stroke:none;stroke-width:0.264583;filter:url(#filter4828)"
       xml:space="preserve"><tspan
         style="font-style:normal;font-variant:normal;font-weight:500;font-stretch:normal;font-size:1.76389px;font-family:Rubik;-inkscape-font-specification:'Rubik Medium';fill:#ffffff;fill-opacity:1;stroke-width:0.264583"
         y="1.8728571"
         x="3.9445891"
         id="tspan4806"
         sodipodi:role="line">36</tspan></text>
  </g>
</svg>
