<?xml version="1.0" encoding="UTF-8"?>
<svg width="77px" height="104px" viewBox="0 0 77 104" version="1.1" xmlns="http://www.w3.org/2000/svg" xmlns:xlink="http://www.w3.org/1999/xlink">
    <!-- Generator: sketchtool 52.2 (67145) - http://www.bohemiancoding.com/sketch -->
    <title>95AC62A6-CB0B-45C6-9F65-3C062452A2F6</title>
    <desc>Created with sketchtool.</desc>
    <g id="Web-App---Desktop" stroke="none" stroke-width="1" fill="none" fill-rule="evenodd">
        <g id="Home---Tier-0-User" transform="translate(-1207.000000, -315.000000)" fill="#F8F8FB">
            <g id="Top" transform="translate(0.000000, -2.000000)">
                <g id="Balances" transform="translate(115.000000, 317.000000)">
                    <g id="Balance-4" transform="translate(894.000000, 0.000000)">
                        <g id="Symbol-BG" transform="translate(241.208003, 53.283321) rotate(-30.000000) translate(-241.208003, -53.283321) translate(201.708003, 7.283321)">
                            <rect id="Rectangle" x="0.840689352" y="66.2163337" width="61" height="13" rx="4"></rect>
                            <path d="M18.4646563,91.3695462 C17.5968834,91.3695462 16.8592874,91.0662159 16.2518464,90.4595462 C15.6444053,89.8528765 15.3406894,89.1162172 15.3406894,88.2495462 L15.3406894,3.61954618 C15.3406894,2.66620808 15.6227113,1.88621588 16.1867637,1.27954618 C16.7508161,0.672876481 17.5101061,0.369546181 18.4646563,0.369546181 L75.0865571,0.369546181 C76.0411073,0.369546181 76.8220913,0.672876481 77.4295323,1.27954618 C78.0369734,1.88621588 78.3406894,2.66620808 78.3406894,3.61954618 L78.3406894,12.9795462 C78.3406894,13.8462172 78.0369734,14.5828765 77.4295323,15.1895462 C76.8220913,15.7962159 76.0411073,16.0995462 75.0865571,16.0995462 L33.4336646,16.0995462 L33.4336646,40.5395462 L72.4832513,40.5395462 C73.4378016,40.5395462 74.2187855,40.8428765 74.8262265,41.4495462 C75.4336676,42.0562159 75.7373836,42.7928752 75.7373836,43.6595462 L75.7373836,53.0195462 C75.7373836,53.8862172 75.4336676,54.6228765 74.8262265,55.2295462 C74.2187855,55.8362159 73.4378016,56.1395462 72.4832513,56.1395462 L33.4336646,56.1395462 L33.4336646,88.2495462 C33.4336646,89.1162172 33.1299486,89.8528765 32.5225075,90.4595462 C31.9150665,91.0662159 31.1340826,91.3695462 30.1795323,91.3695462 L18.4646563,91.3695462 Z" id="F"></path>
                        </g>
                    </g>
                </g>
            </g>
        </g>
    </g>
</svg>