<?xml version="1.0" encoding="UTF-8"?>
<svg width="38px" height="38px" viewBox="0 0 38 38" version="1.1" xmlns="http://www.w3.org/2000/svg" xmlns:xlink="http://www.w3.org/1999/xlink">
    <!-- Generator: sketchtool 52.2 (67145) - http://www.bohemiancoding.com/sketch -->
    <title>B26F7EFE-93DA-4A9D-8777-0989A3F949B5</title>
    <desc>Created with sketchtool.</desc>
    <defs>
        <linearGradient x1="143.751084%" y1="-43.4378773%" x2="-9.47100473%" y2="110.689304%" id="linearGradient-1">
            <stop stop-color="#109EDB" offset="0%"></stop>
            <stop stop-color="#C921B4" offset="100%"></stop>
        </linearGradient>
    </defs>
    <g id="Web-App---Desktop" stroke="none" stroke-width="1" fill="none" fill-rule="evenodd">
        <g id="Home---Tier-0-User" transform="translate(-1026.000000, -365.000000)">
            <g id="Top" transform="translate(0.000000, -2.000000)">
                <g id="Balances" transform="translate(115.000000, 317.000000)">
                    <g id="Balance-4" transform="translate(894.000000, 0.000000)">
                        <g id="Icon" transform="translate(16.000000, 49.000000)">
                            <path d="M10,6 L30,6 C32.209139,6 34,7.790861 34,10 L34,30 C34,32.209139 32.209139,34 30,34 L10,34 C7.790861,34 6,32.209139 6,30 L6,10 C6,7.790861 7.790861,6 10,6 Z" id="Container" fill="url(#linearGradient-1)" transform="translate(20.000000, 20.000000) rotate(-45.000000) translate(-20.000000, -20.000000) "></path>
                            <text id="36" fill="#FFFFFF" opacity="0.08" font-family="Rubik-Medium, Rubik" font-size="16" font-weight="400">
                                <tspan x="10.428" y="26">36</tspan>
                            </text>
                            <g id="Symbol-Icon" transform="translate(14.000000, 14.000000)" fill="#FFFFFF">
                                <rect id="Rectangle" x="0" y="9.53333333" width="9.28571429" height="1.73333333" rx="0.866666667"></rect>
                                <path d="M2.36363636,13 C2.22294302,13 2.10335547,12.9566671 2.00487013,12.87 C1.90638479,12.7833329 1.85714286,12.6780959 1.85714286,12.5542857 L1.85714286,0.464285714 C1.85714286,0.328094557 1.90286751,0.2166671 1.99431818,0.13 C2.08576886,0.0433329 2.20887369,0 2.36363636,0 L11.5438312,0 C11.6985938,0 11.825216,0.0433329 11.9237013,0.13 C12.0221866,0.2166671 12.0714286,0.328094557 12.0714286,0.464285714 L12.0714286,1.80142857 C12.0714286,1.92523871 12.0221866,2.03047576 11.9237013,2.11714286 C11.825216,2.20380996 11.6985938,2.24714286 11.5438312,2.24714286 L4.79058442,2.24714286 L4.79058442,5.73857143 L11.1217532,5.73857143 C11.2765159,5.73857143 11.403138,5.78190433 11.5016234,5.86857143 C11.6001087,5.95523853 11.6493506,6.06047557 11.6493506,6.18428571 L11.6493506,7.52142857 C11.6493506,7.64523871 11.6001087,7.75047576 11.5016234,7.83714286 C11.403138,7.92380996 11.2765159,7.96714286 11.1217532,7.96714286 L4.79058442,7.96714286 L4.79058442,12.5542857 C4.79058442,12.6780959 4.74134248,12.7833329 4.64285714,12.87 C4.5443718,12.9566671 4.41774969,13 4.26298701,13 L2.36363636,13 Z" id="F"></path>
                            </g>
                        </g>
                    </g>
                </g>
            </g>
        </g>
    </g>
</svg>