<?xml version="1.0" encoding="UTF-8"?>
<svg width="37px" height="38px" viewBox="0 0 37 38" version="1.1" xmlns="http://www.w3.org/2000/svg" xmlns:xlink="http://www.w3.org/1999/xlink">
    <!-- Generator: sketchtool 52.2 (67145) - http://www.bohemiancoding.com/sketch -->
    <title>D5F432A5-03F3-4F05-83FE-80EE82B4C00C</title>
    <desc>Created with sketchtool.</desc>
    <defs>
        <linearGradient x1="143.751084%" y1="-43.4378773%" x2="-9.47100473%" y2="110.689304%" id="linearGradient-1">
            <stop stop-color="#00A679" offset="0%"></stop>
            <stop stop-color="#623479" offset="100%"></stop>
        </linearGradient>
        <path d="M15.42,26.16 C14.4706619,26.16 13.6680033,26.0106682 13.012,25.712 C12.3559967,25.4133318 11.865335,25.0373356 11.54,24.584 C11.214665,24.1306644 11.0413334,23.6640024 11.02,23.184 C11.02,23.0879995 11.0519997,23.0080003 11.116,22.944 C11.1800003,22.8799997 11.2599995,22.848 11.356,22.848 L12.828,22.848 C13.0626678,22.848 13.2226662,22.9546656 13.308,23.168 C13.5426678,23.9253371 14.2466608,24.304 15.42,24.304 C16.0706699,24.304 16.5799982,24.1546682 16.948,23.856 C17.3160018,23.5573318 17.5,23.1306694 17.5,22.576 C17.5,22.0213306 17.3320017,21.6186679 16.996,21.368 C16.6599983,21.1173321 16.1666699,20.992 15.516,20.992 L13.868,20.992 C13.7613328,20.992 13.670667,20.954667 13.596,20.88 C13.521333,20.805333 13.484,20.7146672 13.484,20.608 L13.484,19.92 C13.484,19.7173323 13.5533326,19.5573339 13.692,19.44 L16.54,16.656 L11.98,16.656 C11.8626661,16.656 11.766667,16.618667 11.692,16.544 C11.617333,16.469333 11.58,16.3786672 11.58,16.272 L11.58,15.2 C11.58,15.0826661 11.617333,14.986667 11.692,14.912 C11.766667,14.837333 11.8626661,14.8 11.98,14.8 L18.86,14.8 C18.9773339,14.8 19.073333,14.837333 19.148,14.912 C19.222667,14.986667 19.26,15.0826661 19.26,15.2 L19.26,16.176 C19.26,16.3573342 19.1906674,16.5066661 19.052,16.624 L16.3,19.456 L16.492,19.472 C17.5160051,19.5573338 18.3293303,19.866664 18.932,20.4 C19.5346697,20.933336 19.836,21.695995 19.836,22.688 C19.836,23.3920035 19.6466686,24.0053307 19.268,24.528 C18.8893314,25.0506693 18.36667,25.4533319 17.7,25.736 C17.03333,26.0186681 16.2733376,26.16 15.42,26.16 Z M25.644,26.16 C24.7479955,26.16 23.9613367,25.989335 23.284,25.648 C22.6066633,25.306665 22.0840018,24.8373363 21.716,24.24 C21.3479982,23.6426637 21.164,22.9706704 21.164,22.224 C21.164,21.2853286 21.5799958,20.2506723 22.412,19.12 L25.324,15.12 C25.4093338,15.0133328 25.489333,14.9333336 25.564,14.88 C25.638667,14.8266664 25.7453326,14.8 25.884,14.8 L27.404,14.8 C27.5000005,14.8 27.577333,14.8346663 27.636,14.904 C27.694667,14.9733337 27.724,15.0559995 27.724,15.152 C27.724,15.226667 27.7026669,15.2959997 27.66,15.36 L25.42,18.448 C25.5906675,18.4053331 25.8146653,18.384 26.092,18.384 C26.8066702,18.3946667 27.4653303,18.5679983 28.068,18.904 C28.6706697,19.2400017 29.1506649,19.6959971 29.508,20.272 C29.8653351,20.8480029 30.044,21.4879965 30.044,22.192 C30.044,22.917337 29.8653351,23.5813303 29.508,24.184 C29.1506649,24.7866697 28.63867,25.2666649 27.972,25.624 C27.30533,25.9813351 26.5293378,26.16 25.644,26.16 Z M25.612,24.304 C26.2093363,24.304 26.7159979,24.1200018 27.132,23.752 C27.5480021,23.3839982 27.756,22.8746699 27.756,22.224 C27.756,21.5839968 27.5506687,21.0800018 27.14,20.712 C26.7293313,20.3439982 26.220003,20.16 25.612,20.16 C25.0146637,20.16 24.5106687,20.3439982 24.1,20.712 C23.6893313,21.0800018 23.484,21.5839968 23.484,22.224 C23.484,22.8746699 23.6893313,23.3839982 24.1,23.752 C24.5106687,24.1200018 25.0146637,24.304 25.612,24.304 Z" id="path-2"></path>
    </defs>
    <g id="Web-App---Desktop" stroke="none" stroke-width="1" fill="none" fill-rule="evenodd">
        <g id="Home---Tier-0-User" transform="translate(-728.000000, -365.000000)">
            <g id="Top" transform="translate(0.000000, -2.000000)">
                <g id="Balances" transform="translate(115.000000, 317.000000)">
                    <g id="Balance-3" transform="translate(596.000000, 0.000000)">
                        <g id="Icon" transform="translate(16.000000, 49.000000)">
                            <path d="M9.79898987,5.99898987 L29.7989899,5.99898987 C32.0081289,5.99898987 33.7989899,7.78985087 33.7989899,9.99898987 L33.7989899,29.9989899 C33.7989899,32.2081289 32.0081289,33.9989899 29.7989899,33.9989899 L9.79898987,33.9989899 C7.58985087,33.9989899 5.79898987,32.2081289 5.79898987,29.9989899 L5.79898987,9.99898987 C5.79898987,7.78985087 7.58985087,5.99898987 9.79898987,5.99898987 Z" id="Container" fill="url(#linearGradient-1)" transform="translate(19.798990, 19.998990) rotate(-45.000000) translate(-19.798990, -19.998990) "></path>
                            <g id="36" opacity="0.08">
                                <use fill="#017EE5" xlink:href="#path-2"></use>
                                <use fill="#FFFFFF" xlink:href="#path-2"></use>
                            </g>
                            <path d="M22.322,26.126 C21.8059974,26.126 21.3560019,26.0480008 20.972,25.892 C20.5879981,25.7359992 20.1500025,25.5140014 19.658,25.226 C19.249998,24.9859988 18.9260012,24.8150005 18.686,24.713 C18.4459988,24.6109995 18.1820014,24.56 17.894,24.56 C17.5099981,24.56 17.222001,24.655999 17.03,24.848 C16.837999,25.040001 16.6940005,25.3279981 16.598,25.712 C16.5739999,25.7960004 16.5380002,25.8649997 16.49,25.919 C16.4419998,25.9730003 16.3640005,26 16.256,26 L14.87,26 C14.7739995,26 14.6930003,25.9670003 14.627,25.901 C14.5609997,25.8349997 14.528,25.7540005 14.528,25.658 C14.5520001,24.8899962 14.7469982,24.2510025 15.113,23.741 C15.4790018,23.2309975 15.961997,22.880001 16.562,22.688 C16.5499999,22.3519983 16.5110003,21.980002 16.445,21.572 C16.3789997,21.163998 16.3400001,20.9120005 16.328,20.816 L14.96,20.816 C14.8399994,20.816 14.7380004,20.7740004 14.654,20.69 C14.5699996,20.6059996 14.528,20.5040006 14.528,20.384 L14.528,19.376 C14.528,19.2439993 14.5699996,19.1390004 14.654,19.061 C14.7380004,18.9829996 14.8399994,18.944 14.96,18.944 L15.968,18.944 C15.9319998,18.6199984 15.914,18.260002 15.914,17.864 C15.914,16.4239928 16.312996,15.2870042 17.111,14.453 C17.909004,13.6189958 19.0579925,13.202 20.558,13.202 C21.5180048,13.202 22.3549964,13.3759983 23.069,13.724 C23.7830036,14.0720017 24.3319981,14.5579969 24.716,15.182 C25.1000019,15.8060031 25.3039999,16.519996 25.328,17.324 C25.328,17.4320005 25.2920004,17.5219996 25.22,17.594 C25.1479996,17.6660004 25.0580005,17.702 24.95,17.702 L23.222,17.702 C22.9579987,17.702 22.7780005,17.5580014 22.682,17.27 C22.4059986,15.9499934 21.6980057,15.29 20.558,15.29 C19.8859966,15.29 19.3820017,15.5209977 19.046,15.983 C18.7099983,16.4450023 18.542,17.077996 18.542,17.882 C18.542,18.3740025 18.5539999,18.7279989 18.578,18.944 L21.656,18.944 C21.7760006,18.944 21.8779996,18.9859996 21.962,19.07 C22.0460004,19.1540004 22.088,19.2559994 22.088,19.376 L22.088,20.384 C22.088,20.5040006 22.0460004,20.6059996 21.962,20.69 C21.8779996,20.7740004 21.7760006,20.816 21.656,20.816 L18.722,20.816 C18.8180005,21.6560042 18.8719999,22.2919978 18.884,22.724 C19.1840015,22.7840003 19.4449989,22.8679995 19.667,22.976 C19.8890011,23.0840005 20.1559984,23.239999 20.468,23.444 C20.7800016,23.648001 21.0469989,23.8009995 21.269,23.903 C21.4910011,24.0050005 21.7399986,24.056 22.016,24.056 C22.4360021,24.056 22.7569989,23.9480011 22.979,23.732 C23.2010011,23.5159989 23.3719994,23.204002 23.492,22.796 C23.5160001,22.7239996 23.5549997,22.6610003 23.609,22.607 C23.6630003,22.5529997 23.7319996,22.526 23.816,22.526 L25.076,22.526 C25.1840005,22.526 25.2679997,22.5589997 25.328,22.625 C25.3880003,22.6910003 25.418,22.7719995 25.418,22.868 C25.4059999,23.5520034 25.2560014,24.1369976 24.968,24.623 C24.6799986,25.1090024 24.3050023,25.4809987 23.843,25.739 C23.3809977,25.9970013 22.8740028,26.126 22.322,26.126 Z" id="£" fill="#FFFFFF"></path>
                        </g>
                    </g>
                </g>
            </g>
        </g>
    </g>
</svg>